<?xml version="1.0" encoding="utf-8"?>
<!-- Generator: Adobe Illustrator 19.2.1, SVG Export Plug-In . SVG Version: 6.00 Build 0)  -->
<svg version="1.1" id="Ebene_1" xmlns="http://www.w3.org/2000/svg" xmlns:xlink="http://www.w3.org/1999/xlink" x="0px" y="0px"
	 viewBox="0 0 64 64" style="enable-background:new 0 0 64 64;" xml:space="preserve">
<style type="text/css">
	.st0{fill:#FFFFFF;}
</style>
<g>
	<path class="st0" d="M2,49h14v10c0,0.8,0.5,1.5,1.2,1.8c0.3,0.1,0.6,0.2,0.8,0.2c0.5,0,0.9-0.2,1.3-0.5L32.7,49H62c1.1,0,2-0.9,2-2
		V5c0-1.1-0.9-2-2-2H2C0.9,3,0,3.9,0,5v42C0,48.1,0.9,49,2,49z M4,7h56v38H32c-0.5,0-0.9,0.2-1.3,0.5L20,54.7V47c0-1.1-0.9-2-2-2H4
		V7z"/>
</g>
</svg>
