<?xml version="1.0" encoding="utf-8"?>
<!-- Generator: Adobe Illustrator 19.2.1, SVG Export Plug-In . SVG Version: 6.00 Build 0)  -->
<svg version="1.1" id="Ebene_1" xmlns="http://www.w3.org/2000/svg" xmlns:xlink="http://www.w3.org/1999/xlink" x="0px" y="0px"
	 viewBox="0 0 64 64" style="enable-background:new 0 0 64 64;" xml:space="preserve">
<style type="text/css">
	.st0{fill:#FFFFFF;}
</style>
<g>
	<path class="st0" d="M32,15C11.2,15,0.8,30.2,0.3,30.9c-0.4,0.7-0.4,1.5,0,2.2C0.8,33.8,11.2,49,32,49s31.2-15.2,31.7-15.9
		c0.4-0.7,0.4-1.5,0-2.2C63.2,30.2,52.8,15,32,15z M32,45C16.5,45,7.2,35.3,4.5,32C7.2,28.7,16.4,19,32,19c15.5,0,24.8,9.7,27.5,13
		C56.8,35.3,47.6,45,32,45z"/>
	<path class="st0" d="M32,23c-5,0-9,4-9,9s4,9,9,9s9-4,9-9S37,23,32,23z M32,37c-2.8,0-5-2.2-5-5s2.2-5,5-5s5,2.2,5,5S34.8,37,32,37
		z"/>
</g>
</svg>
