<?xml version="1.0" encoding="utf-8"?>
<!-- Generator: Adobe Illustrator 19.2.1, SVG Export Plug-In . SVG Version: 6.00 Build 0)  -->
<svg version="1.1" id="Ebene_1" xmlns="http://www.w3.org/2000/svg" xmlns:xlink="http://www.w3.org/1999/xlink" x="0px" y="0px"
	 viewBox="0 0 64 64" style="enable-background:new 0 0 64 64;" xml:space="preserve">
<style type="text/css">
	.st0{fill:#FFFFFF;}
</style>
<g>
	<path class="st0" d="M48,3c-7,0-13,3.5-16,8.7C29,6.5,23,3,16,3C5.5,3,0,12.1,0,21c0,20.9,29.7,39,31,39.7c0.3,0.2,0.7,0.3,1,0.3
		c0.4,0,0.7-0.1,1-0.3C34.3,60,64,41.9,64,21C64,12.1,58.5,3,48,3z M32,56.6C26.8,53.3,4,37.6,4,21C4,14.3,7.8,7,16,7
		c6.7,0,14,4.6,14,12c0,1.1,0.9,2,2,2s2-0.9,2-2c0-7.4,7.3-12,14-12c8.2,0,12,7.3,12,14C60,37.6,37.2,53.3,32,56.6z"/>
</g>
</svg>
