<?xml version="1.0" encoding="utf-8"?>
<!-- Generator: Adobe Illustrator 19.2.1, SVG Export Plug-In . SVG Version: 6.00 Build 0)  -->
<svg version="1.1" id="Ebene_1" xmlns="http://www.w3.org/2000/svg" xmlns:xlink="http://www.w3.org/1999/xlink" x="0px" y="0px"
	 viewBox="0 0 64 64" style="enable-background:new 0 0 64 64;" xml:space="preserve">
<style type="text/css">
	.st0{fill:#00746A;}
</style>
<g>
	<path class="st0" d="M45.4,36.6c-0.8-0.8-2-0.8-2.8,0L41,38.2l-3.8-3.8c3-3.6,4.8-8.3,4.8-13.4C42,9.4,32.6,0,21,0S0,9.4,0,21
		s9.4,21,21,21c5.1,0,9.7-1.8,13.4-4.8l3.8,3.8l-1.6,1.6c-0.8,0.8-0.8,2,0,2.8l18,18C55,63.8,55.5,64,56,64s1-0.2,1.4-0.6l6-6
		c0.8-0.8,0.8-2,0-2.8L45.4,36.6z M4,21c0-9.4,7.6-17,17-17s17,7.6,17,17s-7.6,17-17,17S4,30.4,4,21z M56,59.2L40.8,44l3.2-3.2
		L59.2,56L56,59.2z"/>
</g>
</svg>
