<svg xmlns="http://www.w3.org/2000/svg" style="display: none;">
  
    <symbol id="icon-star" viewBox="0 0 512 512">
      <path d="m250 358l-131 92 17 12 46-153 3-7-7-5-127-96-6 20 159-4 8 0 3-7 52-151-21 0 52 151 3 7 8 0 159 4-6-20-128 96-6 5 2 7 47 153 16-12-130-92-7-4z m13 19l-13 0 131 91 26 18-9-31-46-152-4 12 127-97 25-19-32-1-159-3 10 8-52-151-11-30-10 30-52 151 10-8-160 3-32 1 26 19 127 97-4-12-46 152-10 31 27-18z"/>
    </symbol>
  
    <symbol id="icon-parking" viewBox="0 0 512 512">
      <path d="m201 106l55 0c35 0 48 19 48 59 0 27-19 51-43 51l-60 0 12 12 0-133z m0-23c-6 0-11 5-11 12l0 133c0 6 5 11 11 11l60 0c38 0 67-35 67-74 0-52-22-82-72-82z m-120 383c0 19 16 34 36 34l61 0c19 0 35-15 35-35l0-166-12 12 81 0c112 0 155-60 155-148 0-98-49-151-149-151l-172 0c-19 0-35 15-35 34z m24 0l0-420c0-6 5-11 11-11l172 0c87 0 126 43 126 128 0 77-35 125-132 125l-81 0c-6 0-11 5-11 11l0 166c0 7-6 12-12 12l-61 0c-7 0-12-5-12-11z"/>
    </symbol>
  
    <symbol id="icon-eye" viewBox="0 0 512 512">
      <path d="m256 115c-167 0-250 122-253 127-4 6-4 13 0 18 3 5 86 127 253 127 167 0 250-122 253-127 4-5 4-12 0-18-3-5-86-127-253-127z m0 240c-124 0-198-77-220-104 22-26 95-104 220-104 124 0 198 78 220 104-22 27-95 104-220 104z m0-176c-40 0-72 33-72 72 0 40 32 72 72 72 40 0 72-32 72-72 0-39-32-72-72-72z m0 112c-22 0-40-18-40-40 0-22 18-40 40-40 22 0 40 18 40 40 0 22-18 40-40 40z"/>
    </symbol>
  
    <symbol id="icon-eye-full" viewBox="0 0 512 512">
      <path d="m297 251c0 23-18 41-41 41-23 0-41-18-41-41 0-23 18-41 41-41 23 0 41 18 41 41z m212-8c-2-5-87-128-253-128-166 0-251 123-253 128-3 5-3 10 0 18 2 5 87 128 253 128 166 0 251-123 253-128 3-8 3-13 0-18z m-253 80c-41 0-72-34-72-72 0-39 31-72 72-72 41 0 72 33 72 72 0 38-31 72-72 72z"/>
    </symbol>
  
    <symbol id="icon-hamburguer" viewBox="0 0 512 512">
      <path d="m480 90l-457 0c-13 0-23 10-23 22 0 13 10 23 23 23l457 0c13 0 23-10 23-23 0-12-10-22-23-22z m0 153l-457 0c-13 0-23 10-23 23 0 13 10 23 23 23l457 0c13 0 23-10 23-23 0-13-10-23-23-23z m-457 128c-13 0-23 10-23 23 0 13 10 23 23 23l457 0c13 0 23-10 23-23 0-13-10-23-23-23z"/>
    </symbol>
  
    <symbol id="icon-list" viewBox="0 0 512 512">
      <path d="m81 67c18 0 34-12 34-27 0-15-16-27-34-27l-47 0c-19 0-34 12-34 27 0 15 15 27 34 27z m382 0c16 0 29-12 29-27 0-15-13-27-29-27l-272 0c-16 0-29 12-29 27 0 15 13 27 29 27z m-382 215c18 0 34-12 34-27 0-15-16-27-34-27l-47 0c-19 0-34 12-34 27 0 15 15 27 34 27z m240 0l142 0c16 0 29-12 29-27 0-15-13-27-29-27l-272 0c-16 0-29 12-29 27 0 15 13 27 29 27z m-240 216c18 0 34-12 34-27 0-15-16-27-34-27l-47 0c-19 0-34 12-34 27 0 15 15 27 34 27z m382 0c16 0 29-12 29-27 0-15-13-27-29-27l-272 0c-16 0-29 12-29 27 0 15 13 27 29 27z"/>
    </symbol>
  
    <symbol id="icon-dialogue" viewBox="0 0 512 512">
      <path d="m0 365c0 9 7 16 16 16l112 0 0 80c0 6 4 12 9 14 2 1 5 2 7 2 4 0 7-2 10-4l108-92 234 0c9 0 16-7 16-16l0-336c0-9-7-16-16-16l-480 0c-9 0-16 7-16 16z m32-320l448 0 0 304-224 0c-4 0-8 1-10 4l-86 73 0-61c0-9-7-16-16-16l-112 0z"/>
    </symbol>
  
    <symbol id="icon-dialogue-full" viewBox="0 0 512 512">
      <path d="m0 365c0 9 7 16 16 16l112 0 0 80c0 6 4 12 9 14 2 1 5 2 7 2 4 0 7-2 10-4l108-92 234 0c9 0 16-7 16-16l0-336c0-9-7-16-16-16l-480 0c-9 0-16 7-16 16z"/>
    </symbol>
  
    <symbol id="icon-heart" viewBox="0 0 512 512">
      <path d="m384 13c-56 0-104 28-128 70-24-42-72-70-128-70-84 0-128 73-128 145 0 169 238 314 248 321 2 1 5 2 8 2 3 0 6-1 8-2 10-7 248-152 248-321 0-72-44-145-128-145z m-128 433c-41-27-224-154-224-288 0-54 30-113 96-113 54 0 112 37 112 97 0 9 7 16 16 16 9 0 16-7 16-16 0-60 58-97 112-97 66 0 96 59 96 113 0 134-183 261-224 288z"/>
    </symbol>
  
    <symbol id="icon-heart-full" viewBox="0 0 512 512">
      <path d="m384 13c-56 0-105 28-128 69-23-41-72-69-128-69-84 0-128 74-128 146 0 169 238 315 248 320 3 2 5 2 8 2 3 0 5 0 8-2 10-5 248-151 248-320 0-72-44-146-128-146z"/>
    </symbol>
  
    <symbol id="icon-share" viewBox="0 0 512 512">
      <path d="m96 432c31 0 58-15 76-38l133 49c6 39 39 69 79 69 44 0 80-36 80-80 0-44-36-80-80-80-37 0-67 25-77 58l-120-44c3-9 5-20 5-30 0-20-6-39-17-54l148-89c20 19 47 31 77 31 62 0 112-50 112-112 0-62-50-112-112-112-62 0-112 50-112 112 0 20 5 39 15 56l-151 90c-16-11-35-18-56-18-53 0-96 43-96 96 0 53 43 96 96 96z m288-48c26 0 48 22 48 48 0 26-22 48-48 48-26 0-48-22-48-48 0-26 22-48 48-48z m16-352c44 0 80 36 80 80 0 44-36 80-80 80-44 0-80-36-80-80 0-44 36-80 80-80z m-304 240c35 0 64 29 64 64 0 35-29 64-64 64-35 0-64-29-64-64 0-35 29-64 64-64z"/>
    </symbol>
  
    <symbol id="icon-share-full" viewBox="0 0 512 512">
      <path d="m172 394l133 49c6 39 39 69 79 69 44 0 80-36 80-80 0-44-36-80-80-80-37 0-67 25-77 58l-120-44c3-9 5-20 5-30 0-20-6-39-17-54l148-89c20 19 47 31 77 31 62 0 112-50 112-112 0-62-50-112-112-112-62 0-112 50-112 112 0 20 5 39 15 56l-151 90c-16-11-35-18-56-18-53 0-96 43-96 96 0 53 43 96 96 96 31 0 58-15 76-38z"/>
    </symbol>
  
    <symbol id="icon-star-full" viewBox="0 0 512 512">
      <path d="m256 376l-159 110 57-184-154-115 192-5 64-182 64 182 192 5-154 115 57 184z"/>
    </symbol>
  
    <symbol id="icon-accelerator" viewBox="0 0 512 512">
      <path d="m256 0c-68 0-133 27-181 75-48 48-75 113-75 181 0 68 27 133 75 181 48 48 113 75 181 75 68 0 133-27 181-75 48-48 75-113 75-181 0-68-27-133-75-181-48-48-113-75-181-75z m158 414c-42 43-98 66-158 66-60 0-116-23-158-66-43-42-66-98-66-158 0-60 23-116 66-158 42-43 98-66 158-66 60 0 116 23 158 66 43 42 66 98 66 158 0 60-23 116-66 158z m-158-350c-51 0-100 20-136 56-36 37-56 85-56 136 0 9 7 16 16 16 9 0 16-7 16-16 0-43 17-83 47-113 30-30 70-47 113-47 43 0 83 17 113 47 30 30 47 70 47 113 0 9 7 16 16 16 9 0 16-7 16-16 0-51-20-99-56-136-36-36-85-56-136-56z m0 184c-2 0-4 0-6 1l-46-52c-6-6-16-7-23-1-6 6-7 16-1 23l46 51c-1 3-2 7-2 10 0 9 3 17 9 23 7 6 15 9 23 9 9 0 17-3 23-9 12-13 12-33 0-46-6-6-15-9-23-9z"/>
    </symbol>
  
    <symbol id="icon-add-folder" viewBox="0 0 512 512">
      <path d="m496 112l-249 0-60-59c-3-3-7-5-11-5l-160 0c-9 0-16 7-16 16l0 352c0 9 7 16 16 16l480 0c9 0 16-7 16-16l0-288c0-9-7-16-16-16z m-16 288l-448 0 0-320 137 0 60 59c3 3 7 5 11 5l240 0z m-240-144l-64 0c-9 0-16 7-16 16 0 9 7 16 16 16l64 0 0 64c0 9 7 16 16 16 9 0 16-7 16-16l0-64 64 0c9 0 16-7 16-16 0-9-7-16-16-16l-64 0 0-64c0-9-7-16-16-16-9 0-16 7-16 16z"/>
    </symbol>
  
    <symbol id="icon-agenda" viewBox="0 0 512 512">
      <path d="m104 512l304 0c18 0 32-14 32-32l0-448c0-18-14-32-32-32l-304 0c-18 0-32 14-32 32l0 48-16 0c-9 0-16 7-16 16 0 9 7 16 16 16l16 0 0 32-16 0c-9 0-16 7-16 16 0 9 7 16 16 16l16 0 0 32-16 0c-9 0-16 7-16 16 0 9 7 16 16 16l16 0 0 32-16 0c-9 0-16 7-16 16 0 9 7 16 16 16l16 0 0 32-16 0c-9 0-16 7-16 16 0 9 7 16 16 16l16 0 0 32-16 0c-9 0-16 7-16 16 0 9 7 16 16 16l16 0 0 48c0 18 14 32 32 32z m304-32l-64 0 0-448 64 0z m-304-112l16 0c9 0 16-7 16-16 0-9-7-16-16-16l-16 0 0-32 16 0c9 0 16-7 16-16 0-9-7-16-16-16l-16 0 0-32 16 0c9 0 16-7 16-16 0-9-7-16-16-16l-16 0 0-32 16 0c9 0 16-7 16-16 0-9-7-16-16-16l-16 0 0-32 16 0c9 0 16-7 16-16 0-9-7-16-16-16l-16 0 0-48 208 0 0 448-208 0 0-48 16 0c9 0 16-7 16-16 0-9-7-16-16-16l-16 0z"/>
    </symbol>
  
    <symbol id="icon-alarm-clock" viewBox="0 0 512 512">
      <path d="m464 256c0-115-93-208-208-208-115 0-208 93-208 208 0 78 43 146 107 182l-46 47c-7 6-7 16 0 22 3 3 7 5 11 5 4 0 8-2 11-5l56-55c21 8 45 12 69 12 24 0 48-4 69-12l56 55c3 3 7 5 11 5 4 0 8-2 11-5 7-6 7-16 0-22l-46-47c64-36 107-104 107-182z m-135 160c-4 0-9 1-12 5-1 0-1 0-1 0-19 7-39 11-60 11-21 0-41-4-60-11 0 0 0 0-1 0-3-4-8-5-12-5-61-28-103-89-103-160 0-97 79-176 176-176 97 0 176 79 176 176 0 71-42 132-103 160z m-2-142l-55-28 0-86c0-9-7-16-16-16-9 0-16 7-16 16l0 96c0 6 3 12 9 14l64 32c2 1 5 2 7 2 6 0 12-3 14-9 4-8 1-17-7-21z m-184-247c-1-5-6-10-12-11l-80-16c-5-1-11 1-14 5l-32 32c-4 3-6 9-5 14l16 80c1 6 6 11 11 12 2 1 3 1 5 1 4 0 8-2 11-5l96-96c4-4 6-10 4-16z m-101 69l-9-43 20-20 43 9z m438 48c2 0 3 0 5-1 5-1 10-6 11-12l16-80c1-5-1-11-5-14l-32-32c-3-4-9-6-14-5l-80 16c-6 1-11 6-12 11-2 6 0 12 4 16l96 96c3 3 7 5 11 5z m-21-111l20 20-9 43-54-54z"/>
    </symbol>
  
    <symbol id="icon-arrow-down" viewBox="0 0 512 512">
      <path d="m380 205l-124 132-124-132c-6-6-17-7-23-1-6 6-7 17-1 23l136 144c3 3 8 5 12 5 4 0 9-2 12-5l136-144c6-6 5-17-1-23-6-6-17-5-23 1z m-124-205c-68 0-133 27-181 75-48 48-75 113-75 181 0 68 27 133 75 181 48 48 113 75 181 75 68 0 133-27 181-75 48-48 75-113 75-181 0-68-27-133-75-181-48-48-113-75-181-75z m158 414c-42 43-98 66-158 66-60 0-116-23-158-66-43-42-66-98-66-158 0-60 23-116 66-158 42-43 98-66 158-66 60 0 116 23 158 66 43 42 66 98 66 158 0 60-23 116-66 158z"/>
    </symbol>
  
    <symbol id="icon-arrow-left" viewBox="0 0 512 512">
      <path d="m308 109c-6-6-17-7-23-1l-144 136c-3 3-5 8-5 12 0 4 2 9 5 12l144 136c3 3 7 4 11 4 4 0 8-2 12-5 6-6 5-17-1-23l-132-124 132-124c6-6 7-17 1-23z m-52-109c-68 0-133 27-181 75-48 48-75 113-75 181 0 68 27 133 75 181 48 48 113 75 181 75 68 0 133-27 181-75 48-48 75-113 75-181 0-68-27-133-75-181-48-48-113-75-181-75z m158 414c-42 43-98 66-158 66-60 0-116-23-158-66-43-42-66-98-66-158 0-60 23-116 66-158 42-43 98-66 158-66 60 0 116 23 158 66 43 42 66 98 66 158 0 60-23 116-66 158z"/>
    </symbol>
  
    <symbol id="icon-arrow-right" viewBox="0 0 512 512">
      <path d="m227 108c-6-6-17-5-23 1-6 6-5 17 1 23l132 124-132 124c-6 6-7 17-1 23 4 3 8 5 12 5 4 0 8-1 11-4l144-136c3-3 5-8 5-12 0-4-2-9-5-12z m29-108c-68 0-133 27-181 75-48 48-75 113-75 181 0 68 27 133 75 181 48 48 113 75 181 75 68 0 133-27 181-75 48-48 75-113 75-181 0-68-27-133-75-181-48-48-113-75-181-75z m158 414c-42 43-98 66-158 66-60 0-116-23-158-66-43-42-66-98-66-158 0-60 23-116 66-158 42-43 98-66 158-66 60 0 116 23 158 66 43 42 66 98 66 158 0 60-23 116-66 158z"/>
    </symbol>
  
    <symbol id="icon-arrow-up" viewBox="0 0 512 512">
      <path d="m268 141c-6-6-18-6-24 0l-136 144c-6 6-5 17 1 23 6 6 17 5 23-1l124-132 124 132c4 3 8 5 12 5 4 0 8-1 11-4 6-6 7-17 1-23z m-12-141c-68 0-133 27-181 75-48 48-75 113-75 181 0 68 27 133 75 181 48 48 113 75 181 75 68 0 133-27 181-75 48-48 75-113 75-181 0-68-27-133-75-181-48-48-113-75-181-75z m158 414c-42 43-98 66-158 66-60 0-116-23-158-66-43-42-66-98-66-158 0-60 23-116 66-158 42-43 98-66 158-66 60 0 116 23 158 66 43 42 66 98 66 158 0 60-23 116-66 158z"/>
    </symbol>
  
    <symbol id="icon-battery-1" viewBox="0 0 512 512">
      <path d="m0 360c0 9 7 16 16 16l464 0c9 0 16-7 16-16l0-32 16 0 0-128-16 0 0-32c0-9-7-16-16-16l-464 0c-9 0-16 7-16 16z m32-176l432 0 0 160-432 0z m48 16c-9 0-16 7-16 16l0 96c0 9 7 16 16 16 9 0 16-7 16-16l0-96c0-9-7-16-16-16z m48 0c-9 0-16 7-16 16l0 96c0 9 7 16 16 16 9 0 16-7 16-16l0-96c0-9-7-16-16-16z"/>
    </symbol>
  
    <symbol id="icon-battery-2" viewBox="0 0 512 512">
      <path d="m496 160c0-9-7-16-16-16l-464 0c-9 0-16 7-16 16l0 192c0 9 7 16 16 16l464 0c9 0 16-7 16-16l0-32 16 0 0-128-16 0z m-32 176l-432 0 0-160 432 0z m-384-144c-9 0-16 7-16 16l0 96c0 9 7 16 16 16 9 0 16-7 16-16l0-96c0-9-7-16-16-16z m48 0c-9 0-16 7-16 16l0 96c0 9 7 16 16 16 9 0 16-7 16-16l0-96c0-9-7-16-16-16z m48 0c-9 0-16 7-16 16l0 96c0 9 7 16 16 16 9 0 16-7 16-16l0-96c0-9-7-16-16-16z m48 0c-9 0-16 7-16 16l0 96c0 9 7 16 16 16 9 0 16-7 16-16l0-96c0-9-7-16-16-16z"/>
    </symbol>
  
    <symbol id="icon-battery-3" viewBox="0 0 512 512">
      <path d="m0 352c0 9 7 16 16 16l464 0c9 0 16-7 16-16l0-32 16 0 0-128-16 0 0-32c0-9-7-16-16-16l-464 0c-9 0-16 7-16 16z m32-176l432 0 0 160-432 0z m48 16c-9 0-16 7-16 16l0 96c0 9 7 16 16 16 9 0 16-7 16-16l0-96c0-9-7-16-16-16z m48 0c-9 0-16 7-16 16l0 96c0 9 7 16 16 16 9 0 16-7 16-16l0-96c0-9-7-16-16-16z m48 0c-9 0-16 7-16 16l0 96c0 9 7 16 16 16 9 0 16-7 16-16l0-96c0-9-7-16-16-16z m48 0c-9 0-16 7-16 16l0 96c0 9 7 16 16 16 9 0 16-7 16-16l0-96c0-9-7-16-16-16z m48 0c-9 0-16 7-16 16l0 96c0 9 7 16 16 16 9 0 16-7 16-16l0-96c0-9-7-16-16-16z m48 0c-9 0-16 7-16 16l0 96c0 9 7 16 16 16 9 0 16-7 16-16l0-96c0-9-7-16-16-16z"/>
    </symbol>
  
    <symbol id="icon-battery-4" viewBox="0 0 512 512">
      <path d="m0 352c0 9 7 16 16 16l464 0c9 0 16-7 16-16l0-32 16 0 0-128-16 0 0-32c0-9-7-16-16-16l-464 0c-9 0-16 7-16 16z m32-176l432 0 0 160-432 0z m48 16c-9 0-16 7-16 16l0 96c0 9 7 16 16 16 9 0 16-7 16-16l0-96c0-9-7-16-16-16z m48 0c-9 0-16 7-16 16l0 96c0 9 7 16 16 16 9 0 16-7 16-16l0-96c0-9-7-16-16-16z m48 0c-9 0-16 7-16 16l0 96c0 9 7 16 16 16 9 0 16-7 16-16l0-96c0-9-7-16-16-16z m48 0c-9 0-16 7-16 16l0 96c0 9 7 16 16 16 9 0 16-7 16-16l0-96c0-9-7-16-16-16z m48 0c-9 0-16 7-16 16l0 96c0 9 7 16 16 16 9 0 16-7 16-16l0-96c0-9-7-16-16-16z m48 0c-9 0-16 7-16 16l0 96c0 9 7 16 16 16 9 0 16-7 16-16l0-96c0-9-7-16-16-16z m48 0c-9 0-16 7-16 16l0 96c0 9 7 16 16 16 9 0 16-7 16-16l0-96c0-9-7-16-16-16z m48 0c-9 0-16 7-16 16l0 96c0 9 7 16 16 16 9 0 16-7 16-16l0-96c0-9-7-16-16-16z"/>
    </symbol>
  
    <symbol id="icon-blackboard-graph" viewBox="0 0 512 512">
      <path d="m464 352c9 0 16-7 16-16l0-288c0-9-7-16-16-16l-192 0 0-16c0-9-7-16-16-16-9 0-16 7-16 16l0 16-192 0c-9 0-16 7-16 16l0 288c0 9 7 16 16 16l192 0 0 81-51 52c-7 6-7 16 0 22 6 7 16 7 22 0l29-28 0 17c0 9 7 16 16 16 9 0 16-7 16-16l0-17 29 28c3 3 7 5 11 5 4 0 8-2 11-5 7-6 7-16 0-22l-51-52 0-81z m-400-288l384 0 0 256-384 0z m304 128c0 9 7 16 16 16 9 0 16-7 16-16l0-80c0-1 0-2 0-3 0-1-1-1-1-2 0 0 0-1 0-1 0-1-1-1-1-2 0 0 0 0-1-1-1-2-2-3-4-4-1-1-1-1-1-1-1 0-1-1-2-1 0 0-1 0-1 0-1 0-1-1-2-1-1 0-2 0-3 0l-80 0c-9 0-16 7-16 16 0 9 7 16 16 16l41 0-105 105-37-36c-6-7-16-7-22 0l-64 64c-7 6-7 16 0 22 3 3 7 5 11 5 4 0 8-2 11-5l53-52 37 36c6 7 16 7 22 0l117-116z"/>
    </symbol>
  
    <symbol id="icon-boat" viewBox="0 0 512 512">
      <path d="m464 368l-208 0 0-352c0-9-7-16-16-16-9 0-16 7-16 16l0 352-176 0c-5 0-10 3-13 7-3 5-4 10-2 15l48 112c3 6 9 10 15 10l320 0c6 0 12-4 15-10l48-112c2-5 1-10-2-15-3-4-8-7-13-7z m-59 112l-298 0-35-80 368 0z m-227-312l-96 160c-3 5-3 11 0 16 3 5 8 8 14 8l96 0c9 0 16-7 16-16l0-160c0-7-5-14-12-15-7-2-14 1-18 7z m-2 152l-52 0 52-86z m96-304l0 320c0 9 7 16 16 16 1 0 144-2 144-176 0-174-143-176-144-176-9 0-16 7-16 16z m32 18c31 6 96 31 96 142 0 110-65 136-96 142z"/>
    </symbol>
  
    <symbol id="icon-booknote" viewBox="0 0 512 512">
      <path d="m144 0c-9 0-16 7-16 16l0 480c0 6 4 12 10 15 6 2 13 1 17-4l101-100 101 100c3 3 7 5 11 5 2 0 4 0 6-1 6-3 10-9 10-15l0-480c0-9-7-16-16-16z m208 457l-85-84c-3-3-7-5-11-5-4 0-8 2-11 5l-85 84 0-425 192 0z"/>
    </symbol>
  
    <symbol id="icon-booknote-add" viewBox="0 0 512 512">
      <path d="m155 507l101-100 101 100c3 3 7 5 11 5 2 0 4 0 6-1 6-3 10-9 10-15l0-480c0-9-7-16-16-16l-224 0c-9 0-16 7-16 16l0 480c0 6 4 12 10 15 6 2 13 1 17-4z m5-475l192 0 0 425-85-84c-3-3-7-5-11-5-4 0-8 2-11 5l-85 84z m112 192l0-32 32 0c9 0 16-7 16-16 0-9-7-16-16-16l-32 0 0-32c0-9-7-16-16-16-9 0-16 7-16 16l0 32-32 0c-9 0-16 7-16 16 0 9 7 16 16 16l32 0 0 32c0 9 7 16 16 16 9 0 16-7 16-16z"/>
    </symbol>
  
    <symbol id="icon-booknote-remove" viewBox="0 0 512 512">
      <path d="m155 507l101-100 101 100c3 3 7 5 11 5 2 0 4 0 6-1 6-3 10-9 10-15l0-480c0-9-7-16-16-16l-224 0c-9 0-16 7-16 16l0 480c0 6 4 12 10 15 6 2 13 1 17-4z m5-475l192 0 0 425-85-84c-3-3-7-5-11-5-4 0-8 2-11 5l-85 84z m133 203c3 3 7 5 11 5 4 0 8-2 11-5 7-6 7-16 0-22l-36-37 36-37c7-6 7-16 0-22-6-7-16-7-22 0l-37 36-37-36c-6-7-16-7-22 0-7 6-7 16 0 22l36 37-36 37c-7 6-7 16 0 22 3 3 7 5 11 5 4 0 8-2 11-5l37-36z"/>
    </symbol>
  
    <symbol id="icon-calendar" viewBox="0 0 512 512">
      <path d="m496 64l-64 0 0-16c0-9-7-16-16-16l-48 0c-9 0-16 7-16 16l0 16-192 0 0-16c0-9-7-16-16-16l-48 0c-9 0-16 7-16 16l0 16-64 0c-9 0-16 7-16 16l0 384c0 9 7 16 16 16l480 0c9 0 16-7 16-16l0-384c0-9-7-16-16-16z m-112 0l16 0 0 32-16 0z m-272 0l16 0 0 32-16 0z m368 384l-448 0 0-352 48 0 0 16c0 9 7 16 16 16l48 0c9 0 16-7 16-16l0-16 192 0 0 16c0 9 7 16 16 16l48 0c9 0 16-7 16-16l0-16 48 0z m-320-256l-64 0c-9 0-16 7-16 16l0 64c0 9 7 16 16 16l64 0c9 0 16-7 16-16l0-64c0-9-7-16-16-16z m-16 64l-32 0 0-32 32 0z m144-64l-64 0c-9 0-16 7-16 16l0 64c0 9 7 16 16 16l64 0c9 0 16-7 16-16l0-64c0-9-7-16-16-16z m-16 64l-32 0 0-32 32 0z m144-64l-64 0c-9 0-16 7-16 16l0 64c0 9 7 16 16 16l64 0c9 0 16-7 16-16l0-64c0-9-7-16-16-16z m-16 64l-32 0 0-32 32 0z m-240 64l-64 0c-9 0-16 7-16 16l0 64c0 9 7 16 16 16l64 0c9 0 16-7 16-16l0-64c0-9-7-16-16-16z m-16 64l-32 0 0-32 32 0z m144-64l-64 0c-9 0-16 7-16 16l0 64c0 9 7 16 16 16l64 0c9 0 16-7 16-16l0-64c0-9-7-16-16-16z m-16 64l-32 0 0-32 32 0z m144-64l-64 0c-9 0-16 7-16 16l0 64c0 9 7 16 16 16l64 0c9 0 16-7 16-16l0-64c0-9-7-16-16-16z m-16 64l-32 0 0-32 32 0z"/>
    </symbol>
  
    <symbol id="icon-camera-1" viewBox="0 0 512 512">
      <path d="m0 416c0 9 7 16 16 16l480 0c9 0 16-7 16-16l0-256c0-9-7-16-16-16l-120 0-60-74c-3-4-7-6-12-6l-96 0c-5 0-9 2-12 6l-60 74-120 0c-9 0-16 7-16 16z m144-240c5 0 9-2 12-6l60-74 80 0 60 74c3 4 7 6 12 6l112 0 0 224-384 0 0-224z m-112 0l32 0 0 224-32 0z m224 192c44 0 80-36 80-80 0-44-36-80-80-80-44 0-80 36-80 80 0 44 36 80 80 80z m0-128c26 0 48 22 48 48 0 26-22 48-48 48-26 0-48-22-48-48 0-26 22-48 48-48z m176 0c4 0 8-2 11-5 3-3 5-7 5-11 0-4-2-8-5-11-6-6-16-6-22 0-3 3-5 7-5 11 0 4 2 8 5 11 3 3 7 5 11 5z"/>
    </symbol>
  
    <symbol id="icon-camera-2" viewBox="0 0 512 512">
      <path d="m0 416c0 9 7 16 16 16l480 0c9 0 16-7 16-16l0-288c0-9-7-16-16-16l-336 0 0-32c0-9-7-16-16-16l-80 0c-9 0-16 7-16 16l0 32-32 0c-9 0-16 7-16 16z m80-320l48 0 0 16-48 0z m-48 48l448 0 0 256-448 0z m288 32c-53 0-96 43-96 96 0 53 43 96 96 96 53 0 96-43 96-96 0-53-43-96-96-96z m0 160c-35 0-64-29-64-64 0-35 29-64 64-64 35 0 64 29 64 64 0 35-29 64-64 64z m-192-152l-48 0c-9 0-16 7-16 16 0 9 7 16 16 16l48 0c9 0 16-7 16-16 0-9-7-16-16-16z"/>
    </symbol>
  
    <symbol id="icon-case" viewBox="0 0 512 512">
      <path d="m496 128l-136 0 0-48c0-9-7-16-16-16l-176 0c-9 0-16 7-16 16l0 48-136 0c-9 0-16 7-16 16l0 288c0 9 7 16 16 16l480 0c9 0 16-7 16-16l0-288c0-9-7-16-16-16z m-312-32l144 0 0 32-144 0z m296 320l-448 0 0-256 448 0z"/>
    </symbol>
  
    <symbol id="icon-case-2" viewBox="0 0 512 512">
      <path d="m496 128l-154 0c-5-23-24-64-86-64-62 0-81 41-86 64l-154 0c-9 0-16 7-16 16l0 288c0 9 7 16 16 16l480 0c9 0 16-7 16-16l0-288c0-9-7-16-16-16z m-240-32c35 0 48 18 53 32l-106 0c5-14 18-32 53-32z m224 64l0 64-448 0 0-64z m-248 96l48 0 0 16-48 0z m-200 160l0-160 168 0 0 32c0 9 7 16 16 16l80 0c9 0 16-7 16-16l0-32 168 0 0 160z"/>
    </symbol>
  
    <symbol id="icon-cd" viewBox="0 0 512 512">
      <path d="m256 0c-68 0-133 27-181 75-48 48-75 113-75 181 0 68 27 133 75 181 48 48 113 75 181 75 68 0 133-27 181-75 48-48 75-113 75-181 0-68-27-133-75-181-48-48-113-75-181-75z m-158 98c12-12 25-23 38-31l83 137c-3 2-6 4-8 7-3 2-5 5-7 8l-137-83c8-13 19-26 31-38z m181 181c-6 6-14 9-23 9-9 0-17-3-23-9-12-13-12-33 0-46 6-6 14-9 23-9 9 0 17 3 23 9 12 13 12 33 0 46z m-181 135c-43-42-66-98-66-158 0-32 7-63 19-91l141 84c-2 19 5 38 19 52 12 12 28 19 45 19 2 0 5 0 7 0l84 141c-28 12-59 19-91 19-60 0-116-23-158-66z m316 0c-12 12-25 23-38 31l-83-137c3-2 6-4 8-7 3-2 5-5 7-8l137 83c-8 13-19 26-31 38z m47-67l-141-84c2-19-5-38-19-52-12-12-28-19-45-19-2 0-4 0-7 0l-84-141c28-12 59-19 91-19 60 0 116 23 158 66 43 42 66 98 66 158 0 32-7 63-19 91z"/>
    </symbol>
  
    <symbol id="icon-check" viewBox="0 0 512 512">
      <path d="m256 512c68 0 133-27 181-75 48-48 75-113 75-181 0-68-27-133-75-181-48-48-113-75-181-75-68 0-133 27-181 75-48 48-75 113-75 181 0 68 27 133 75 181 48 48 113 75 181 75z m-158-414c42-43 98-66 158-66 60 0 116 23 158 66 43 42 66 98 66 158 0 60-23 116-66 158-42 43-98 66-158 66-60 0-116-23-158-66-43-42-66-98-66-158 0-60 23-116 66-158z m93 286c1 0 1 0 1 0 4 0 9-2 12-5l200-208c6-6 5-16-1-23-6-6-16-5-23 1l-187 195-77-90c-5-7-16-8-22-2-7 5-8 16-2 22l88 104c3 4 7 6 11 6z"/>
    </symbol>
  
    <symbol id="icon-chronometer" viewBox="0 0 512 512">
      <path d="m24 280c0 62 24 120 68 164 44 44 102 68 164 68 62 0 120-24 164-68 44-44 68-102 68-164 0-62-24-120-68-164-40-40-92-64-148-67l0-17 32 0c9 0 16-7 16-16 0-9-7-16-16-16l-96 0c-9 0-16 7-16 16 0 9 7 16 16 16l32 0 0 17c-56 3-108 27-148 67-44 44-68 102-68 164z m431-16l-15 0c-9 0-16 7-16 16 0 9 7 16 16 16l15 0c-3 42-19 82-47 114 0-1-1-1-1-2l-23-22c-6-7-16-7-22 0-7 6-7 16 0 22l22 23c1 0 1 1 2 1-32 28-72 44-114 47l0-23c0-9-7-16-16-16-9 0-16 7-16 16l0 23c-42-3-82-19-114-47 1 0 1-1 2-1l22-23c7-6 7-16 0-22-6-7-16-7-22 0l-23 22c0 1-1 1-1 2-28-32-44-72-47-114l15 0c9 0 16-7 16-16 0-9-7-16-16-16l-15 0c3-42 19-82 47-114 0 1 1 1 1 2l23 22c3 4 7 5 11 5 4 0 8-1 11-5 7-6 7-16 0-22l-22-23c-1 0-1-1-2-1 32-28 72-44 114-47l0 15c0 9 7 16 16 16 9 0 16-7 16-16l0-15c42 3 82 19 114 47-1 0-1 1-2 1l-22 23c-7 6-7 16 0 22 3 4 7 5 11 5 4 0 8-1 11-5l23-22c0-1 1-1 1-2 28 32 44 72 47 114z m-183-12l0-68c0-9-7-16-16-16-9 0-16 7-16 16l0 68c-10 6-16 16-16 28 0 18 14 32 32 32 18 0 32-14 32-32 0-12-6-22-16-28z"/>
    </symbol>
  
    <symbol id="icon-clock" viewBox="0 0 512 512">
      <path d="m256 0c-68 0-133 27-181 75-48 48-75 113-75 181 0 68 27 133 75 181 48 48 113 75 181 75 68 0 133-27 181-75 48-48 75-113 75-181 0-68-27-133-75-181-48-48-113-75-181-75z m158 414c-42 43-98 66-158 66-60 0-116-23-158-66-43-42-66-98-66-158 0-60 23-116 66-158 42-43 98-66 158-66 60 0 116 23 158 66 43 42 66 98 66 158 0 60-23 116-66 158z m-40-125l-102-44 0-165c0-9-7-16-16-16-9 0-16 7-16 16l0 176c0 6 4 12 10 15l112 48c2 1 4 1 6 1 6 0 12-4 15-10 3-8-1-17-9-21z m-278-49l-16 0c-9 0-16 7-16 16 0 9 7 16 16 16l16 0c9 0 16-7 16-16 0-9-7-16-16-16z m304 16c0 9 7 16 16 16l16 0c9 0 16-7 16-16 0-9-7-16-16-16l-16 0c-9 0-16 7-16 16z m-144 144c-9 0-16 7-16 16l0 16c0 9 7 16 16 16 9 0 16-7 16-16l0-16c0-9-7-16-16-16z"/>
    </symbol>
  
    <symbol id="icon-cloud-check" viewBox="0 0 512 512">
      <path d="m96 416l336 0c44 0 80-36 80-80 0-39-28-71-65-79-7-90-83-161-175-161-82 0-152 53-173 128l-3 0c-53 0-96 43-96 96 0 53 43 96 96 96z m0-160l16 0c8 0 14-5 16-13 12-67 73-115 144-115 79 0 144 65 144 144 0 9 7 16 16 16 26 0 48 22 48 48 0 26-22 48-48 48l-336 0c-35 0-64-29-64-64 0-35 29-64 64-64z m133 75c3 3 7 5 11 5 4 0 8-2 11-5l80-80c7-6 7-16 0-22-6-7-16-7-22 0l-69 68-37-36c-6-7-16-7-22 0-7 6-7 16 0 22z"/>
    </symbol>
  
    <symbol id="icon-cloud-delete" viewBox="0 0 512 512">
      <path d="m447 257c-7-90-83-161-175-161-82 0-152 53-173 128l-3 0c-53 0-96 43-96 96 0 53 43 96 96 96l336 0c44 0 80-36 80-80 0-39-28-71-65-79z m-15 127l-336 0c-35 0-64-29-64-64 0-35 29-64 64-64l16 0c8 0 14-5 16-13 12-67 73-115 144-115 79 0 144 65 144 144 0 9 7 16 16 16 26 0 48 22 48 48 0 26-22 48-48 48z m-117-155c-6-7-16-7-22 0l-29 28-29-28c-6-7-16-7-22 0-7 6-7 16 0 22l28 29-28 29c-7 6-7 16 0 22 3 3 7 5 11 5 4 0 8-2 11-5l29-28 29 28c3 3 7 5 11 5 4 0 8-2 11-5 7-6 7-16 0-22l-28-29 28-29c7-6 7-16 0-22z"/>
    </symbol>
  
    <symbol id="icon-cloud-download" viewBox="0 0 512 512">
      <path d="m256 192c-9 0-16 7-16 16l0 217-37-36c-6-7-16-7-22 0-7 6-7 16 0 22l64 64c3 3 7 5 11 5 4 0 8-2 11-5l64-64c7-6 7-16 0-22-6-7-16-7-22 0l-37 36 0-217c0-9-7-16-16-16z m191 1c-7-90-83-161-175-161-82 0-152 53-173 128l-3 0c-53 0-96 43-96 96 0 53 43 96 96 96l96 0c9 0 16-7 16-16 0-9-7-16-16-16l-96 0c-35 0-64-29-64-64 0-35 29-64 64-64l16 0c8 0 14-5 16-13 12-67 73-115 144-115 79 0 144 65 144 144 0 9 7 16 16 16 26 0 48 22 48 48 0 26-22 48-48 48l-112 0c-9 0-16 7-16 16 0 9 7 16 16 16l112 0c44 0 80-36 80-80 0-39-28-71-65-79z"/>
    </symbol>
  
    <symbol id="icon-cloud-upload" viewBox="0 0 512 512">
      <path d="m256 480c9 0 16-7 16-16l0-217 37 36c3 3 7 5 11 5 4 0 8-2 11-5 7-6 7-16 0-22l-64-64c-6-7-16-7-22 0l-64 64c-7 6-7 16 0 22 6 7 16 7 22 0l37-36 0 217c0 9 7 16 16 16z m191-287c-7-90-83-161-175-161-82 0-152 53-173 128l-3 0c-53 0-96 43-96 96 0 53 43 96 96 96l96 0c9 0 16-7 16-16 0-9-7-16-16-16l-96 0c-35 0-64-29-64-64 0-35 29-64 64-64l16 0c8 0 14-5 16-13 12-67 73-115 144-115 79 0 144 65 144 144 0 9 7 16 16 16 26 0 48 22 48 48 0 26-22 48-48 48l-112 0c-9 0-16 7-16 16 0 9 7 16 16 16l112 0c44 0 80-36 80-80 0-39-28-71-65-79z"/>
    </symbol>
  
    <symbol id="icon-cloudy" viewBox="0 0 512 512">
      <path d="m447 257c-7-90-83-161-175-161-82 0-152 53-173 128l-3 0c-53 0-96 43-96 96 0 53 43 96 96 96l336 0c44 0 80-36 80-80 0-39-28-71-65-79z m-15 127l-336 0c-35 0-64-29-64-64 0-35 29-64 64-64l16 0c8 0 14-5 16-13 12-67 73-115 144-115 79 0 144 65 144 144 0 9 7 16 16 16 26 0 48 22 48 48 0 26-22 48-48 48z"/>
    </symbol>
  
    <symbol id="icon-cocktail" viewBox="0 0 512 512">
      <path d="m33 66c-2 7 0 14 5 18l202 171 0 225-88 0c-9 0-16 7-16 16 0 9 7 16 16 16l208 0c9 0 16-7 16-16 0-9-7-16-16-16l-88 0 0-225 202-171c5-4 7-11 5-18-2-6-8-10-15-10l-113 0 28-29c7-6 7-16 0-22-6-7-16-7-22 0l-48 48c-1 1-2 2-3 3l-258 0c-7 0-13 4-15 10z m387 22l-164 139-164-139z"/>
    </symbol>
  
    <symbol id="icon-coffee" viewBox="0 0 512 512">
      <path d="m80 208l0 224c0 28 17 80 80 80l128 0c63 0 80-52 80-80l0-16 48 0c9 0 16-7 16-16l0-128c0-9-7-16-16-16l-48 0 0-48c0-9-7-16-16-16l-256 0c-9 0-16 7-16 16z m320 80l0 96-32 0 0-96z m-288-64l224 0 0 208c0 8-3 48-48 48l-128 0c-45 0-48-40-48-48z m24-128c-9 0-16 7-16 16l0 32c0 9 7 16 16 16 9 0 16-7 16-16l0-16 64 0c9 0 16-7 16-16l0-48c0-9-7-16-16-16l-40 0 0-32c0-9-7-16-16-16-9 0-16 7-16 16l0 48c0 9 7 16 16 16l40 0 0 16z m128 0c-9 0-16 7-16 16l0 32c0 9 7 16 16 16 9 0 16-7 16-16l0-16 64 0c9 0 16-7 16-16l0-64c0-9-7-16-16-16l-40 0 0-16c0-9-7-16-16-16-9 0-16 7-16 16l0 32c0 9 7 16 16 16l40 0 0 32z"/>
    </symbol>
  
    <symbol id="icon-compass" viewBox="0 0 512 512">
      <path d="m256 0c-68 0-133 27-181 75-48 48-75 113-75 181 0 68 27 133 75 181 48 48 113 75 181 75 68 0 133-27 181-75 48-48 75-113 75-181 0-68-27-133-75-181-48-48-113-75-181-75z m158 414c-42 43-98 66-158 66-60 0-116-23-158-66-43-42-66-98-66-158 0-60 23-116 66-158 42-43 98-66 158-66 60 0 116 23 158 66 43 42 66 98 66 158 0 60-23 116-66 158z m-79-164l-64-160c-3-6-8-10-15-10-7 0-12 4-15 10l-64 160c-1 4-1 8 0 12l0 0 64 160c3 6 8 10 15 10 7 0 12-4 15-10l64-160 0 0c1-4 1-8 0-12z m-79-111l40 101-80 0z m0 234l-40-101 80 0z"/>
    </symbol>
  
    <symbol id="icon-compress" viewBox="0 0 512 512">
      <path d="m137 192l-41 0c-9 0-16 7-16 16 0 9 7 16 16 16l96 0 0-96c0-9-7-16-16-16-9 0-16 7-16 16l0 41-133-132c-6-7-16-7-22 0-7 6-7 16 0 22z m238 128l41 0c9 0 16-7 16-16 0-9-7-16-16-16l-96 0 0 96c0 9 7 16 16 16 9 0 16-7 16-16l0-41 133 132c3 3 7 5 11 5 4 0 8-2 11-5 7-6 7-16 0-22z m-359 160c4 0 8-2 11-5l133-132 0 41c0 9 7 16 16 16 9 0 16-7 16-16l0-96-96 0c-9 0-16 7-16 16 0 9 7 16 16 16l41 0-132 133c-7 6-7 16 0 22 3 3 7 5 11 5z m469-443l-133 132 0-41c0-9-7-16-16-16-9 0-16 7-16 16l0 96 96 0c9 0 16-7 16-16 0-9-7-16-16-16l-41 0 132-133c7-6 7-16 0-22-6-7-16-7-22 0z"/>
    </symbol>
  
    <symbol id="icon-cutlery" viewBox="0 0 512 512">
      <path d="m64 0c-9 0-16 7-16 16l0 128c0 7 4 13 11 15l37 13 0 324c0 9 7 16 16 16 9 0 16-7 16-16l0-324 37-13c7-2 11-8 11-15l0-128c0-9-7-16-16-16-9 0-16 7-16 16l0 116-16 6 0-122c0-9-7-16-16-16-9 0-16 7-16 16l0 122-16-6 0-116c0-9-7-16-16-16z m208 512c9 0 16-7 16-16l0-200c0 0 0 0 0 0l0-280c0-9-7-16-16-16l-32 0c-8 0-15 6-16 14l-32 264c-1 8 4 16 12 18l52 12 0 188c0 9 7 16 16 16z m-46-244l28-236 2 0 0 244z m166 244c9 0 16-7 16-16l0-306c33-9 56-45 56-78 0-34-27-112-72-112-45 0-72 78-72 112 0 33 23 69 56 78l0 306c0 9 7 16 16 16z m-40-400c0-33 26-80 40-80 14 0 40 47 40 80 0 22-18 48-40 48-22 0-40-26-40-48z"/>
    </symbol>
  
    <symbol id="icon-delete" viewBox="0 0 512 512">
      <path d="m141 371c3 3 7 5 11 5 4 0 8-2 11-5l93-92 93 92c3 3 7 5 11 5 4 0 8-2 11-5 7-6 7-16 0-22l-92-93 92-93c7-6 7-16 0-22-6-7-16-7-22 0l-93 92-93-92c-6-7-16-7-22 0-7 6-7 16 0 22l92 93-92 93c-7 6-7 16 0 22z m115 141c68 0 133-27 181-75 48-48 75-113 75-181 0-68-27-133-75-181-48-48-113-75-181-75-68 0-133 27-181 75-48 48-75 113-75 181 0 68 27 133 75 181 48 48 113 75 181 75z m-158-414c42-43 98-66 158-66 60 0 116 23 158 66 43 42 66 98 66 158 0 60-23 116-66 158-42 43-98 66-158 66-60 0-116-23-158-66-43-42-66-98-66-158 0-60 23-116 66-158z"/>
    </symbol>
  
    <symbol id="icon-delete-folder" viewBox="0 0 512 512">
      <path d="m0 416c0 9 7 16 16 16l480 0c9 0 16-7 16-16l0-288c0-9-7-16-16-16l-249 0-60-59c-3-3-7-5-11-5l-160 0c-9 0-16 7-16 16z m32-336l137 0 60 59c3 3 7 5 11 5l240 0 0 256-448 0z m299 117c-6-7-16-7-22 0l-53 52-53-52c-6-7-16-7-22 0-7 6-7 16 0 22l52 53-52 53c-7 6-7 16 0 22 3 3 7 5 11 5 4 0 8-2 11-5l53-52 53 52c3 3 7 5 11 5 4 0 8-2 11-5 7-6 7-16 0-22l-52-53 52-53c7-6 7-16 0-22z"/>
    </symbol>
  
    <symbol id="icon-dialogue-add" viewBox="0 0 512 512">
      <path d="m16 392l112 0 0 80c0 6 4 12 9 15 2 1 5 1 7 1 4 0 7-1 10-4l108-92 234 0c9 0 16-7 16-16l0-336c0-9-7-16-16-16l-480 0c-9 0-16 7-16 16l0 336c0 9 7 16 16 16z m16-336l448 0 0 304-224 0c-4 0-8 1-10 4l-86 73 0-61c0-9-7-16-16-16l-112 0z m152 168l56 0 0 56c0 9 7 16 16 16 9 0 16-7 16-16l0-56 56 0c9 0 16-7 16-16 0-9-7-16-16-16l-56 0 0-56c0-9-7-16-16-16-9 0-16 7-16 16l0 56-56 0c-9 0-16 7-16 16 0 9 7 16 16 16z"/>
    </symbol>
  
    <symbol id="icon-dialogue-delete" viewBox="0 0 512 512">
      <path d="m496 24l-480 0c-9 0-16 7-16 16l0 336c0 9 7 16 16 16l112 0 0 80c0 6 4 12 9 15 2 1 5 1 7 1 4 0 7-1 10-4l108-92 234 0c9 0 16-7 16-16l0-336c0-9-7-16-16-16z m-16 336l-224 0c-4 0-8 1-10 4l-86 73 0-61c0-9-7-16-16-16l-112 0 0-304 448 0z m-291-85c3 3 7 5 11 5 4 0 8-2 11-5l45-44 45 44c3 3 7 5 11 5 4 0 8-2 11-5 7-6 7-16 0-22l-44-45 44-45c7-6 7-16 0-22-6-7-16-7-22 0l-45 44-45-44c-6-7-16-7-22 0-7 6-7 16 0 22l44 45-44 45c-7 6-7 16 0 22z"/>
    </symbol>
  
    <symbol id="icon-dialogue-happy" viewBox="0 0 512 512">
      <path d="m256 304c33 0 64-31 64-64 0-9-7-16-16-16-9 0-16 7-16 16 0 15-17 32-32 32-15 0-32-17-32-32 0-9-7-16-16-16-9 0-16 7-16 16 0 33 31 64 64 64z m-80-128c4 0 8-2 11-5 3-3 5-7 5-11 0-4-2-8-5-11-6-6-16-6-22 0-3 3-5 7-5 11 0 4 2 8 5 11 3 3 7 5 11 5z m160 0c4 0 8-2 11-5 3-3 5-7 5-11 0-4-2-8-5-11-6-6-16-6-22 0-3 3-5 7-5 11 0 4 2 8 5 11 3 3 7 5 11 5z m-336 200c0 9 7 16 16 16l112 0 0 80c0 6 4 12 9 15 2 1 5 1 7 1 4 0 7-1 10-4l108-92 234 0c9 0 16-7 16-16l0-336c0-9-7-16-16-16l-480 0c-9 0-16 7-16 16z m32-320l448 0 0 304-224 0c-4 0-8 1-10 4l-86 73 0-61c0-9-7-16-16-16l-112 0z"/>
    </symbol>
  
    <symbol id="icon-dialogue-sad" viewBox="0 0 512 512">
      <path d="m208 304c9 0 16-7 16-16 0-15 17-32 32-32 15 0 32 17 32 32 0 9 7 16 16 16 9 0 16-7 16-16 0-33-31-64-64-64-33 0-64 31-64 64 0 9 7 16 16 16z m-32-128c4 0 8-2 11-5 3-3 5-7 5-11 0-4-2-8-5-11-6-6-16-6-22 0-3 3-5 7-5 11 0 4 2 8 5 11 3 3 7 5 11 5z m160 0c4 0 8-2 11-5 3-3 5-7 5-11 0-4-2-8-5-11-6-6-16-6-22 0-3 3-5 7-5 11 0 4 2 8 5 11 3 3 7 5 11 5z m-336 200c0 9 7 16 16 16l112 0 0 80c0 6 4 12 9 15 2 1 5 1 7 1 4 0 7-1 10-4l108-92 234 0c9 0 16-7 16-16l0-336c0-9-7-16-16-16l-480 0c-9 0-16 7-16 16z m32-320l448 0 0 304-224 0c-4 0-8 1-10 4l-86 73 0-61c0-9-7-16-16-16l-112 0z"/>
    </symbol>
  
    <symbol id="icon-dialogue-text" viewBox="0 0 512 512">
      <path d="m80 144l352 0c9 0 16-7 16-16 0-9-7-16-16-16l-352 0c-9 0-16 7-16 16 0 9 7 16 16 16z m0 80l352 0c9 0 16-7 16-16 0-9-7-16-16-16l-352 0c-9 0-16 7-16 16 0 9 7 16 16 16z m368 64c0-9-7-16-16-16l-352 0c-9 0-16 7-16 16 0 9 7 16 16 16l352 0c9 0 16-7 16-16z m-448 88c0 9 7 16 16 16l112 0 0 80c0 6 4 12 9 15 2 1 5 1 7 1 4 0 7-1 10-4l108-92 234 0c9 0 16-7 16-16l0-336c0-9-7-16-16-16l-480 0c-9 0-16 7-16 16z m32-320l448 0 0 304-224 0c-4 0-8 1-10 4l-86 73 0-61c0-9-7-16-16-16l-112 0z"/>
    </symbol>
  
    <symbol id="icon-dialogue-think" viewBox="0 0 512 512">
      <path d="m256 256c26 0 48-22 48-48 0-26-22-48-48-48-26 0-48 22-48 48 0 26 22 48 48 48z m0-64c9 0 16 7 16 16 0 9-7 16-16 16-9 0-16-7-16-16 0-9 7-16 16-16z m-128 64c26 0 48-22 48-48 0-26-22-48-48-48-26 0-48 22-48 48 0 26 22 48 48 48z m0-64c9 0 16 7 16 16 0 9-7 16-16 16-9 0-16-7-16-16 0-9 7-16 16-16z m256 64c26 0 48-22 48-48 0-26-22-48-48-48-26 0-48 22-48 48 0 26 22 48 48 48z m0-64c9 0 16 7 16 16 0 9-7 16-16 16-9 0-16-7-16-16 0-9 7-16 16-16z m112-168l-480 0c-9 0-16 7-16 16l0 336c0 9 7 16 16 16l112 0 0 80c0 6 4 12 9 15 2 1 5 1 7 1 4 0 7-1 10-4l108-92 234 0c9 0 16-7 16-16l0-336c0-9-7-16-16-16z m-16 336l-224 0c-4 0-8 1-10 4l-86 73 0-61c0-9-7-16-16-16l-112 0 0-304 448 0z"/>
    </symbol>
  
    <symbol id="icon-diamond" viewBox="0 0 512 512">
      <path d="m380 54c-3-4-7-6-12-6l-224 0c-5 0-9 2-12 6l-128 160c-6 6-5 16 1 21l240 240c3 3 7 5 11 5 4 0 8-2 11-5l240-240c6-5 7-15 1-21z m83 154l-83 0-38-128 18 0z m-329 32l86 165-165-165z m36 0l70 0 0 134z m102 0l70 0-70 134z m106 0l79 0-165 165z m-70-160l38 128-74 0 0-128z m-68 128l-74 0 38-128 36 0z m-88-128l18 0-38 128-83 0z"/>
    </symbol>
  
    <symbol id="icon-dish-fork" viewBox="0 0 512 512">
      <path d="m496 0c-9 0-16 7-16 16l0 116-16 6 0-122c0-9-7-16-16-16-9 0-16 7-16 16l0 122-16-6 0-116c0-9-7-16-16-16-9 0-16 7-16 16l0 128c0 7 4 13 11 15l37 13 0 324c0 9 7 16 16 16 9 0 16-7 16-16l0-324 37-13c7-2 11-8 11-15l0-128c0-9-7-16-16-16z m-96 280c0-110-90-200-200-200-110 0-200 90-200 200 0 110 90 200 200 200 110 0 200-90 200-200z m-368 0c0-93 75-168 168-168 93 0 168 75 168 168 0 93-75 168-168 168-93 0-168-75-168-168z m304 0c0-75-61-136-136-136-75 0-136 61-136 136 0 75 61 136 136 136 75 0 136-61 136-136z m-240 0c0-57 47-104 104-104 57 0 104 47 104 104 0 57-47 104-104 104-57 0-104-47-104-104z"/>
    </symbol>
  
    <symbol id="icon-dish-spoon" viewBox="0 0 512 512">
      <path d="m200 480c110 0 200-90 200-200 0-110-90-200-200-200-110 0-200 90-200 200 0 110 90 200 200 200z m0-368c93 0 168 75 168 168 0 93-75 168-168 168-93 0-168-75-168-168 0-93 75-168 168-168z m0 304c75 0 136-61 136-136 0-75-61-136-136-136-75 0-136 61-136 136 0 75 61 136 136 136z m0-240c57 0 104 47 104 104 0 57-47 104-104 104-57 0-104-47-104-104 0-57 47-104 104-104z m240 336c9 0 16-7 16-16l0-306c33-9 56-45 56-78 0-34-27-112-72-112-45 0-72 78-72 112 0 33 23 69 56 78l0 306c0 9 7 16 16 16z m-40-400c0-33 26-80 40-80 14 0 40 47 40 80 0 22-18 48-40 48-22 0-40-26-40-48z"/>
    </symbol>
  
    <symbol id="icon-download" viewBox="0 0 512 512">
      <path d="m256 192c-9 0-16 7-16 16l0 217-37-36c-6-7-16-7-22 0-7 6-7 16 0 22l64 64c3 3 7 5 11 5 4 0 8-2 11-5l64-64c7-6 7-16 0-22-6-7-16-7-22 0l-37 36 0-217c0-8-7-16-16-16z m240-160l-480 0c-9 0-16 7-16 16l0 288c0 9 7 16 16 16l176 0c9 0 16-7 16-16 0-9-7-16-16-16l-160 0 0-256 448 0 0 256-160 0c-9 0-16 7-16 16 0 9 7 16 16 16l176 0c9 0 16-7 16-16l0-288c0-9-7-16-16-16z"/>
    </symbol>
  
    <symbol id="icon-download-folder" viewBox="0 0 512 512">
      <path d="m0 368c0 9 7 16 16 16l176 0c9 0 16-7 16-16 0-9-7-16-16-16l-160 0 0-320 137 0 60 59c3 3 7 5 11 5l240 0 0 256-160 0c-9 0-16 7-16 16 0 9 7 16 16 16l176 0c9 0 16-7 16-16l0-288c0-9-7-16-16-16l-249 0-60-59c-3-3-7-5-11-5l-160 0c-9 0-16 7-16 16z m256-144c-9 0-16 7-16 16l0 217-37-36c-6-7-16-7-22 0-7 6-7 16 0 22l64 64c3 3 7 5 11 5 4 0 8-2 11-5l64-64c7-6 7-16 0-22-6-7-16-7-22 0l-37 36 0-217c0-9-7-16-16-16z"/>
    </symbol>
  
    <symbol id="icon-expand" viewBox="0 0 512 512">
      <path d="m16 192c9 0 16-7 16-16l0-89 141 140c3 3 7 5 11 5 4 0 8-2 11-5 7-6 7-16 0-22l-140-141 89 0c9 0 16-7 16-16 0-9-7-16-16-16l-128 0c-9 0-16 7-16 16l0 128c0 9 7 16 16 16z m0 288l128 0c9 0 16-7 16-16 0-9-7-16-16-16l-89 0 140-141c7-6 7-16 0-22-6-7-16-7-22 0l-141 140 0-89c0-9-7-16-16-16-9 0-16 7-16 16l0 128c0 9 7 16 16 16z m480-160c-9 0-16 7-16 16l0 89-141-140c-6-7-16-7-22 0-7 6-7 16 0 22l140 141-89 0c-9 0-16 7-16 16 0 9 7 16 16 16l128 0c9 0 16-7 16-16l0-128c0-9-7-16-16-16z m0-288l-128 0c-9 0-16 7-16 16 0 9 7 16 16 16l89 0-140 141c-7 6-7 16 0 22 3 3 7 5 11 5 4 0 8-2 11-5l141-140 0 89c0 9 7 16 16 16 9 0 16-7 16-16l0-128c0-9-7-16-16-16z"/>
    </symbol>
  
    <symbol id="icon-fast-food" viewBox="0 0 512 512">
      <path d="m336 440l0-64c0-9-7-16-16-16l-304 0c-9 0-16 7-16 16l0 64c0 9 7 16 16 16l304 0c9 0 16-7 16-16z m-32-16l-272 0 0-32 272 0z m-256-112c-9 0-16 7-16 16 0 9 7 16 16 16l240 0c9 0 16-7 16-16 0-9-7-16-16-16z m-32-16l304 0c9 0 16-7 16-16 0-1-2-112-168-112-166 0-168 111-168 112 0 9 7 16 16 16z m152-96c97 0 125 41 133 64l-266 0c8-23 36-64 133-64z m328-64l-82 0-14-83c-2-8-10-14-19-13-8 2-14 10-13 19l13 77-13 0c-4 0-9 2-12 5-3 3-4 7-4 12l16 288c0 8 8 15 16 15l96 0c8 0 16-7 16-15l16-288c0-5-1-9-4-12-3-3-8-5-12-5z m-31 288l-66 0-14-256 15 0c0 0 0 0 0 0 0 0 0 0 0 0l79 0z"/>
    </symbol>
  
    <symbol id="icon-flag" viewBox="0 0 512 512">
      <path d="m96 0c-9 0-16 7-16 16l0 480c0 9 7 16 16 16 9 0 16-7 16-16l0-240 304 0c6 0 11-3 14-8 3-4 3-10 0-15l-44-89 44-89c3-5 3-11 0-15-3-5-8-8-14-8l-304 0 0-16c0-9-7-16-16-16z m294 64l-36 73c-3 4-3 10 0 14l36 73-278 0 0-160z"/>
    </symbol>
  
    <symbol id="icon-folder" viewBox="0 0 512 512">
      <path d="m0 64l0 352c0 9 7 16 16 16l480 0c9 0 16-7 16-16l0-288c0-9-7-16-16-16l-249 0-60-59c-3-3-7-5-11-5l-160 0c-9 0-16 7-16 16z m32 16l137 0 60 59c3 3 7 5 11 5l240 0 0 256-448 0z"/>
    </symbol>
  
    <symbol id="icon-geolocalizator" viewBox="0 0 512 512">
      <path d="m320 184c0-35-29-64-64-64-35 0-64 29-64 64 0 35 29 64 64 64 35 0 64-29 64-64z m-96 0c0-18 14-32 32-32 18 0 32 14 32 32 0 18-14 32-32 32-18 0-32-14-32-32z m32 328c4 0 9-2 12-5 7-8 173-198 172-323 0-101-83-184-184-184-101 0-184 83-184 184 0 125 165 315 172 323 3 3 7 5 12 5z m0-480c83 0 152 68 152 152 0 95-114 241-152 287-38-46-152-192-152-287 0-84 68-152 152-152z"/>
    </symbol>
  
    <symbol id="icon-globe" viewBox="0 0 512 512">
      <path d="m288 32c106 0 192 86 192 192 0 106-86 192-192 192-34 0-63-1-89-14-7-4-17-1-21 7-4 7-1 17 7 21 22 12 46 16 71 17l0 33-48 0c-9 0-16 7-16 16 0 9 7 16 16 16l128 0c9 0 16-7 16-16 0-9-7-16-16-16l-48 0 0-32c124 0 224-100 224-224 0-124-100-224-224-224-9 0-16 7-16 16 0 9 7 16 16 16z m0 360c93 0 168-75 168-168 0-93-75-168-168-168-93 0-168 75-168 168 0 93 75 168 168 168z m0-304c75 0 136 61 136 136 0 75-61 136-136 136-75 0-136-61-136-136 0-75 61-136 136-136z"/>
    </symbol>
  
    <symbol id="icon-graph" viewBox="0 0 512 512">
      <path d="m496 480l-16 0 0-224c0-18-14-32-32-32l-48 0c-18 0-32 14-32 32l0 224-16 0 0-384c0-18-14-32-32-32l-48 0c-18 0-32 14-32 32l0 384-16 0 0-144c0-18-14-32-32-32l-48 0c-18 0-32 14-32 32l0 144-80 0 0-64 32 0c9 0 16-7 16-16 0-9-7-16-16-16l-32 0 0-48c9 0 16-7 16-16 0-9-7-16-16-16l0-48 32 0c9 0 16-7 16-16 0-9-7-16-16-16l-32 0 0-48c9 0 16-7 16-16 0-9-7-16-16-16l0-48 32 0c9 0 16-7 16-16 0-9-7-16-16-16l-32 0 0-48c0-9-7-16-16-16-9 0-16 7-16 16l0 464c0 18 14 32 32 32l464 0c9 0 16-7 16-16 0-9-7-16-16-16z m-96-224l48 0 0 224-48 0z m-128-160l48 0 0 384-48 0z m-128 240l48 0 0 144-48 0z"/>
    </symbol>
  
    <symbol id="icon-graph-descending" viewBox="0 0 512 512">
      <path d="m496 480l-464 0 0-64 32 0c9 0 16-7 16-16 0-9-7-16-16-16l-32 0 0-48c9 0 16-7 16-16 0-9-7-16-16-16l0-48 32 0c9 0 16-7 16-16 0-9-7-16-16-16l-32 0 0-48c9 0 16-7 16-16 0-9-7-16-16-16l0-48 32 0c9 0 16-7 16-16 0-9-7-16-16-16l-32 0 0-48c0-9-7-16-16-16-9 0-16 7-16 16l0 464c0 18 14 32 32 32l464 0c9 0 16-7 16-16 0-9-7-16-16-16z m-245-331l-80-80c-6-7-16-7-22 0-7 6-7 16 0 22l68 69-36 37c-7 6-7 16 0 22l164 165-41 0c-9 0-16 7-16 16 0 9 7 16 16 16l80 0c1 0 2 0 3 0 1 0 1-1 2-1 0 0 1 0 1 0 1 0 1-1 2-1 0 0 0 0 1-1 2-1 3-2 4-4 1-1 1-1 1-1 0-1 1-1 1-2 0 0 0-1 0-1 0-1 1-1 1-2 0-1 0-2 0-3l0-80c0-9-7-16-16-16-9 0-16 7-16 16l0 41-153-153 36-37c7-6 7-16 0-22z"/>
    </symbol>
  
    <symbol id="icon-graph-rising" viewBox="0 0 512 512">
      <path d="m496 480l-464 0 0-64 32 0c9 0 16-7 16-16 0-9-7-16-16-16l-32 0 0-48c9 0 16-7 16-16 0-9-7-16-16-16l0-48 32 0c9 0 16-7 16-16 0-9-7-16-16-16l-32 0 0-48c9 0 16-7 16-16 0-9-7-16-16-16l0-48 32 0c9 0 16-7 16-16 0-9-7-16-16-16l-32 0 0-48c0-9-7-16-16-16-9 0-16 7-16 16l0 464c0 18 14 32 32 32l464 0c9 0 16-7 16-16 0-9-7-16-16-16z m-48-208c9 0 16-7 16-16l0-80c0-1 0-2 0-3 0-1-1-1-1-2 0 0 0-1 0-1 0-1-1-1-1-2 0 0 0 0-1-1-1-2-2-3-4-4-1-1-1-1-1-1-1 0-1-1-2-1 0 0-1 0-1 0-1 0-1-1-2-1-1 0-2 0-3 0l-80 0c-9 0-16 7-16 16 0 9 7 16 16 16l41 0-153 153-37-36c-6-7-16-7-22 0l-80 80c-7 6-7 16 0 22 3 3 7 5 11 5 4 0 8-2 11-5l69-68 37 36c6 7 16 7 22 0l165-164 0 41c0 9 7 16 16 16z"/>
    </symbol>
  
    <symbol id="icon-hammer" viewBox="0 0 512 512">
      <path d="m363 277c-6-7-16-7-22 0l-13 12-129-129 84-85c7-6 7-16 0-22l-32-32c-6-7-16-7-22 0 0 0-18 16-39 16-12 0-23-5-35-16-6-7-16-7-22 0l-128 128c-7 6-7 16 0 22l80 80c3 3 7 5 11 5 4 0 8-2 11-5l69-68 129 129-12 13c-7 6-7 16 0 22l144 144c3 3 7 5 11 5 4 0 8-2 11-5l48-48c7-6 7-16 0-22z m-267-60l-57-57 106-106c14 10 29 15 45 15 21 0 38-8 49-16l10 11z m352 240l-121-121 25-25 121 121z"/>
    </symbol>
  
    <symbol id="icon-happy-drop" viewBox="0 0 512 512">
      <path d="m224 352c0-9-7-16-16-16-9 0-16 7-16 16 0 33 31 64 64 64 33 0 64-31 64-64 0-9-7-16-16-16-9 0-16 7-16 16 0 15-17 32-32 32-15 0-32-17-32-32z m-37-75c-6-6-16-6-22 0-3 3-5 7-5 11 0 4 2 8 5 11 3 3 7 5 11 5 4 0 8-2 11-5 3-3 5-7 5-11 0-4-2-8-5-11z m149 27c4 0 8-2 11-5 3-3 5-7 5-11 0-4-2-8-5-11-6-6-16-6-22 0-3 3-5 7-5 11 0 4 2 8 5 11 3 3 7 5 11 5z m-80-312c0 0 0 0 0 0-5 0-9 2-12 6-7 9-173 214-172 338 0 100 80 176 184 176 105 0 184-76 184-176 0-124-164-329-171-338-3-4-8-6-13-6z m0 488c-86 0-152-62-152-144 0-95 114-252 152-302 38 50 152 207 152 302 0 82-65 144-152 144z"/>
    </symbol>
  
    <symbol id="icon-headphones" viewBox="0 0 512 512">
      <path d="m96 440l16 0c9 0 16-7 16-16l0-208c0-5 1-112 128-112 126 0 128 107 128 112l0 208c0 9 7 16 16 16l16 0c53 0 96-43 96-96 0-53-43-96-96-96l0-32c0-1-2-144-160-144-158 0-160 143-160 144l0 32c-53 0-96 43-96 96 0 53 43 96 96 96z m384-96c0 35-29 64-64 64l0-128c35 0 64 29 64 64z m-384-64l0 128c-35 0-64-29-64-64 0-35 29-64 64-64z"/>
    </symbol>
  
    <symbol id="icon-heart-broken" viewBox="0 0 512 512">
      <path d="m248 486l8 5 8-5c10-6 248-151 248-318 0-72-44-144-128-144-56 0-104 28-128 69-24-41-72-69-128-69-84 0-128 72-128 144 0 167 238 312 248 318z m136-430c66 0 96 58 96 112 0 129-171 250-220 282l39-39c7-6 7-16 0-22l-36-37 36-37c7-6 7-16 0-22l-36-37 52-53c7-6 7-16 0-22l-42-42c8-52 61-83 111-83z m-256 0c54 0 112 37 112 96l2 0c1 1 2 2 3 3l36 37-52 53c-7 6-7 16 0 22l36 37-36 37c-7 6-7 16 0 22l36 37-35 35c-65-45-198-153-198-267 0-54 30-112 96-112z"/>
    </symbol>
  
    <symbol id="icon-home" viewBox="0 0 512 512">
      <path d="m320 512l96 0c9 0 16-7 16-16l0-224 64 0c6 0 12-4 15-10 2-6 1-13-4-17l-240-240c-6-7-16-7-22 0l-240 240c-5 4-6 11-4 17 3 6 9 10 15 10l64 0 0 224c0 9 7 16 16 16l96 0c9 0 16-7 16-16l0-112 96 0 0 112c0 9 7 16 16 16z m-128-160c-9 0-16 7-16 16l0 112-64 0 0-224c0-9-7-16-16-16l-41 0 201-201 201 201-41 0c-9 0-16 7-16 16l0 224-64 0 0-112c0-9-7-16-16-16z"/>
    </symbol>
  
    <symbol id="icon-hourglass" viewBox="0 0 512 512">
      <path d="m400 128l0-48 32 0c9 0 16-7 16-16l0-48c0-9-7-16-16-16l-352 0c-9 0-16 7-16 16l0 48c0 9 7 16 16 16l32 0 0 48c0 56 32 104 78 128-46 24-78 72-78 128l0 48-32 0c-9 0-16 7-16 16l0 48c0 9 7 16 16 16l352 0c9 0 16-7 16-16l0-48c0-9-7-16-16-16l-32 0 0-48c0-56-32-104-78-128 46-24 78-72 78-128z m-304-96l320 0 0 16-320 0z m320 448l-320 0 0-16 320 0z m-48-96l0 48-224 0 0-48c0-62 50-112 112-112 62 0 112 50 112 112z m-112-144c-62 0-112-50-112-112l0-48 224 0 0 48c0 62-50 112-112 112z"/>
    </symbol>
  
    <symbol id="icon-image" viewBox="0 0 512 512">
      <path d="m16 440l480 0c9 0 16-7 16-16l0-336c0-9-7-16-16-16l-480 0c-9 0-16 7-16 16l0 336c0 9 7 16 16 16z m16-32l0-25 159-145 86 85c3 4 7 5 12 5 5 0 9-3 12-6l37-50 142 127 0 9z m448-304l0 252-133-120c-4-3-8-4-13-4-4 1-8 3-11 6l-37 50-83-83c-6-6-15-7-22-1l-149 136 0-236z m-72 128c31 0 56-25 56-56 0-31-25-56-56-56-31 0-56 25-56 56 0 31 25 56 56 56z m0-80c13 0 24 11 24 24 0 13-11 24-24 24-13 0-24-11-24-24 0-13 11-24 24-24z"/>
    </symbol>
  
    <symbol id="icon-key" viewBox="0 0 512 512">
      <path d="m400 144c-56 0-103 42-111 96l-273 0c-9 0-16 7-16 16 0 9 7 16 16 16l16 0 0 48c0 9 7 16 16 16 9 0 16-7 16-16l0-48 32 0 0 16c0 9 7 16 16 16 9 0 16-7 16-16l0-16 161 0c8 54 55 96 111 96 62 0 112-50 112-112 0-62-50-112-112-112z m0 192c-44 0-80-36-80-80 0-44 36-80 80-80 44 0 80 36 80 80 0 44-36 80-80 80z"/>
    </symbol>
  
    <symbol id="icon-life-buoy" viewBox="0 0 512 512">
      <path d="m256 0c-141 0-256 115-256 256 0 141 115 256 256 256 141 0 256-115 256-256 0-141-115-256-256-256z m215 192l-87 0c-3 0-5 1-7 2-13-25-34-46-59-59 1-2 2-4 2-7l0-87c72 22 129 79 151 151z m-83 32l90 0c1 10 2 21 2 32 0 11-1 22-2 32l-90 0c3-10 4-21 4-32 0-11-1-22-4-32z m-132 136c-57 0-104-47-104-104 0-57 47-104 104-104 57 0 104 47 104 104 0 57-47 104-104 104z m32-326l0 90c-10-3-21-4-32-4-11 0-22 1-32 4l0-90c10-1 21-2 32-2 11 0 22 1 32 2z m-96 7l0 87c0 3 1 5 2 7-25 13-46 34-59 59-2-1-4-2-7-2l-87 0c22-72 79-129 151-151z m-160 215c0-11 1-22 2-32l90 0c-3 10-4 21-4 32 0 11 1 22 4 32l-90 0c-1-10-2-21-2-32z m9 64l87 0c3 0 5-1 7-2 13 25 34 46 59 59-1 2-2 4-2 7l0 87c-72-22-129-79-151-151z m183 158l0-90c10 3 21 4 32 4 11 0 22-1 32-4l0 90c-10 1-21 2-32 2-11 0-22-1-32-2z m96-7l0-87c0-3-1-5-2-7 25-13 46-34 59-59 2 1 4 2 7 2l87 0c-22 72-79 129-151 151z"/>
    </symbol>
  
    <symbol id="icon-list-1" viewBox="0 0 512 512">
      <path d="m16 176l48 0c9 0 16-7 16-16 0-9-7-16-16-16l-48 0c-9 0-16 7-16 16 0 9 7 16 16 16z m480-32l-320 0c-9 0-16 7-16 16 0 9 7 16 16 16l320 0c9 0 16-7 16-16 0-9-7-16-16-16z m-480 128l48 0c9 0 16-7 16-16 0-9-7-16-16-16l-48 0c-9 0-16 7-16 16 0 9 7 16 16 16z m480-32l-320 0c-9 0-16 7-16 16 0 9 7 16 16 16l320 0c9 0 16-7 16-16 0-9-7-16-16-16z m-480 128l48 0c9 0 16-7 16-16 0-9-7-16-16-16l-48 0c-9 0-16 7-16 16 0 9 7 16 16 16z m480-32l-320 0c-9 0-16 7-16 16 0 9 7 16 16 16l320 0c9 0 16-7 16-16 0-9-7-16-16-16z"/>
    </symbol>
  
    <symbol id="icon-lock-closed" viewBox="0 0 512 512">
      <path d="m112 144l0 112-48 0c-9 0-16 7-16 16l0 224c0 9 7 16 16 16l384 0c9 0 16-7 16-16l0-224c0-9-7-16-16-16l-48 0 0-112c0-79-65-144-144-144-79 0-144 65-144 144z m320 336l-352 0 0-192 352 0z m-176-448c62 0 112 50 112 112l0 112-224 0 0-112c0-62 50-112 112-112z m0 288c-26 0-48 22-48 48 0 21 13 39 32 45l0 19c0 9 7 16 16 16 9 0 16-7 16-16l0-19c19-6 32-24 32-45 0-26-22-48-48-48z m0 64c-9 0-16-7-16-16 0-9 7-16 16-16 9 0 16 7 16 16 0 9-7 16-16 16z"/>
    </symbol>
  
    <symbol id="icon-lock-open" viewBox="0 0 512 512">
      <path d="m48 272l0 224c0 9 7 16 16 16l384 0c9 0 16-7 16-16l0-224c0-9-7-16-16-16l-304 0 0-112c0-62 50-112 112-112 62 0 112 50 112 112l0 32c0 9 7 16 16 16 9 0 16-7 16-16l0-32c0-79-65-144-144-144-79 0-144 65-144 144l0 112-48 0c-9 0-16 7-16 16z m32 16l352 0 0 192-352 0z m176 32c-26 0-48 22-48 48 0 21 13 39 32 45l0 19c0 9 7 16 16 16 9 0 16-7 16-16l0-19c19-6 32-24 32-45 0-26-22-48-48-48z m0 64c-9 0-16-7-16-16 0-9 7-16 16-16 9 0 16 7 16 16 0 9-7 16-16 16z"/>
    </symbol>
  
    <symbol id="icon-loudspeaker" viewBox="0 0 512 512">
      <path d="m96 512l320 0c9 0 16-7 16-16l0-480c0-9-7-16-16-16l-320 0c-9 0-16 7-16 16l0 480c0 9 7 16 16 16z m16-480l288 0 0 448-288 0z m144 192c-62 0-112 50-112 112 0 62 50 112 112 112 62 0 112-50 112-112 0-62-50-112-112-112z m0 192c-44 0-80-36-80-80 0-44 36-80 80-80 44 0 80 36 80 80 0 44-36 80-80 80z m0-224c35 0 64-29 64-64 0-35-29-64-64-64-35 0-64 29-64 64 0 35 29 64 64 64z m0-96c18 0 32 14 32 32 0 18-14 32-32 32-18 0-32-14-32-32 0-18 14-32 32-32z m0 216c-13 0-24 11-24 24 0 13 11 24 24 24 13 0 24-11 24-24 0-13-11-24-24-24z m0 32c-4 0-8-4-8-8 0-4 4-8 8-8 4 0 8 4 8 8 0 4-4 8-8 8z"/>
    </symbol>
  
    <symbol id="icon-magnifier" viewBox="0 0 512 512">
      <path d="m363 293c-6-7-16-7-22 0l-13 12-30-30c24-29 38-66 38-107 0-93-75-168-168-168-93 0-168 75-168 168 0 93 75 168 168 168 41 0 78-14 107-38l30 30-12 13c-7 6-7 16 0 22l144 144c3 3 7 5 11 5 4 0 8-2 11-5l48-48c7-6 7-16 0-22z m-331-125c0-75 61-136 136-136 75 0 136 61 136 136 0 75-61 136-136 136-75 0-136-61-136-136z m416 305l-121-121 25-25 121 121z"/>
    </symbol>
  
    <symbol id="icon-magnifier-minus" viewBox="0 0 512 512">
      <path d="m363 293c-6-7-16-7-22 0l-13 12-30-30c24-29 38-66 38-107 0-93-75-168-168-168-93 0-168 75-168 168 0 93 75 168 168 168 41 0 78-14 107-38l30 30-12 13c-7 6-7 16 0 22l144 144c3 3 7 5 11 5 4 0 8-2 11-5l48-48c7-6 7-16 0-22z m-331-125c0-75 61-136 136-136 75 0 136 61 136 136 0 75-61 136-136 136-75 0-136-61-136-136z m416 305l-121-121 25-25 121 121z m-208-321l-144 0c-9 0-16 7-16 16 0 9 7 16 16 16l144 0c9 0 16-7 16-16 0-9-7-16-16-16z"/>
    </symbol>
  
    <symbol id="icon-magnifier-plus" viewBox="0 0 512 512">
      <path d="m168 336c41 0 78-14 107-38l30 30-12 13c-7 6-7 16 0 22l144 144c3 3 7 5 11 5 4 0 8-2 11-5l48-48c7-6 7-16 0-22l-144-144c-6-7-16-7-22 0l-13 12-30-30c24-29 38-66 38-107 0-93-75-168-168-168-93 0-168 75-168 168 0 93 75 168 168 168z m305 112l-25 25-121-121 25-25z m-305-416c75 0 136 61 136 136 0 75-61 136-136 136-75 0-136-61-136-136 0-75 61-136 136-136z m-72 152l56 0 0 56c0 9 7 16 16 16 9 0 16-7 16-16l0-56 56 0c9 0 16-7 16-16 0-9-7-16-16-16l-56 0 0-56c0-9-7-16-16-16-9 0-16 7-16 16l0 56-56 0c-9 0-16 7-16 16 0 9 7 16 16 16z"/>
    </symbol>
  
    <symbol id="icon-mail" viewBox="0 0 512 512">
      <path d="m496 96l-480 0c-9 0-16 7-16 16l0 288c0 9 7 16 16 16l480 0c9 0 16-7 16-16l0-288c0-9-7-16-16-16z m-51 32l-189 117-189-117z m-413 256l0-240 224 139 224-139 0 240z"/>
    </symbol>
  
    <symbol id="icon-mail-open" viewBox="0 0 512 512">
      <path d="m502 193l-70-28 0-149c0-9-7-16-16-16l-320 0c-9 0-16 7-16 16l0 149-70 28c-6 3-10 9-10 15l0 0 0 288c0 9 7 16 16 16l480 0c9 0 16-7 16-16l0-288 0 0c0-6-4-12-10-15z m-38 19l-32 20 0-32z m-64-180l0 144c0 0 0 0 0 0l0 76-144 89-144-89 0-76c0 0 0 0 0 0l0-144z m-320 200l-32-20 32-12z m-48 248l0-240 216 134c2 1 5 2 8 2 3 0 6-1 8-2l216-134 0 240z m256-384l64 0c9 0 16-7 16-16 0-9-7-16-16-16l-64 0c-9 0-16 7-16 16 0 9 7 16 16 16z m-128 64l192 0c9 0 16-7 16-16 0-9-7-16-16-16l-192 0c-9 0-16 7-16 16 0 9 7 16 16 16z m0 64l192 0c9 0 16-7 16-16 0-9-7-16-16-16l-192 0c-9 0-16 7-16 16 0 9 7 16 16 16z"/>
    </symbol>
  
    <symbol id="icon-map" viewBox="0 0 512 512">
      <path d="m505 27c-4-3-10-4-15-2l-154 62-154-62c-4-1-8-1-12 0l-160 64c-6 3-10 8-10 15l0 368c0 5 3 10 7 13 3 2 6 3 9 3 2 0 4 0 6-1l154-62 154 62c4 1 8 1 12 0l160-64c6-3 10-8 10-15l0-368c0-5-3-10-7-13z m-313 37l128 51 0 333-128-51z m-160 51l128-51 0 333-128 51z m448 282l-128 51 0-333 128-51z"/>
    </symbol>
  
    <symbol id="icon-medical-case" viewBox="0 0 512 512">
      <path d="m496 128l-136 0 0-48c0-9-7-16-16-16l-176 0c-9 0-16 7-16 16l0 48-136 0c-9 0-16 7-16 16l0 288c0 9 7 16 16 16l480 0c9 0 16-7 16-16l0-288c0-9-7-16-16-16z m-312-32l144 0 0 32-144 0z m296 320l-448 0 0-256 448 0z m-208-144l0-64c0-9-7-16-16-16-9 0-16 7-16 16l0 64-64 0c-9 0-16 7-16 16 0 9 7 16 16 16l64 0 0 64c0 9 7 16 16 16 9 0 16-7 16-16l0-64 64 0c9 0 16-7 16-16 0-9-7-16-16-16z"/>
    </symbol>
  
    <symbol id="icon-microphone-1" viewBox="0 0 512 512">
      <path d="m240 351l0 129-104 0c-9 0-16 7-16 16 0 9 7 16 16 16l240 0c9 0 16-7 16-16 0-9-7-16-16-16l-104 0 0-129c67-10 128-76 128-143 0-9-7-16-16-16-9 0-16 7-16 16 0 55-57 112-112 112-55 0-112-57-112-112 0-9-7-16-16-16-9 0-16 7-16 16 0 67 61 133 128 143z m16-63c44 0 80-36 80-80l0-128c0-44-36-80-80-80-44 0-80 36-80 80l0 128c0 44 36 80 80 80z m0-256c26 0 48 22 48 48l0 8-16 0c-9 0-16 7-16 16 0 9 7 16 16 16l16 0 0 32-16 0c-9 0-16 7-16 16 0 9 7 16 16 16l16 0 0 24c0 26-22 48-48 48-26 0-48-22-48-48l0-24 16 0c9 0 16-7 16-16 0-9-7-16-16-16l-16 0 0-32 16 0c9 0 16-7 16-16 0-9-7-16-16-16l-16 0 0-8c0-26 22-48 48-48z"/>
    </symbol>
  
    <symbol id="icon-microphone-2" viewBox="0 0 512 512">
      <path d="m37 443l64 64c3 3 7 5 11 5l48 0c4 0 8-2 11-5l165-164 25 25-52 53c-7 6-7 16 0 22 6 7 16 7 22 0l64-64c7-6 7-16 0-22l-48-48c-6-7-16-7-22 0l-172 171-34 0-48-48 9-9 21 20c3 3 7 5 11 5 4 0 8-2 11-5l207-207c10 3 20 4 30 4 66 0 120-54 120-120 0-66-54-120-120-120-66 0-120 54-120 120 0 10 1 20 4 30l-207 207c-7 6-7 16 0 22l20 21-20 21c-7 6-7 16 0 22z m323-411c49 0 88 39 88 88 0 49-39 88-88 88-49 0-88-39-88-88 0-49 39-88 88-88z m-61 191l-43 42-41-41 42-43c10 17 25 32 42 42z m-107 24l41 41-121 121-41-41z"/>
    </symbol>
  
    <symbol id="icon-minus" viewBox="0 0 512 512">
      <path d="m256 0c-68 0-133 27-181 75-48 48-75 113-75 181 0 68 27 133 75 181 48 48 113 75 181 75 68 0 133-27 181-75 48-48 75-113 75-181 0-68-27-133-75-181-48-48-113-75-181-75z m158 414c-42 43-98 66-158 66-60 0-116-23-158-66-43-42-66-98-66-158 0-60 23-116 66-158 42-43 98-66 158-66 60 0 116 23 158 66 43 42 66 98 66 158 0 60-23 116-66 158z m-14-174l-288 0c-9 0-16 7-16 16 0 9 7 16 16 16l288 0c9 0 16-7 16-16 0-9-7-16-16-16z"/>
    </symbol>
  
    <symbol id="icon-multiple-image" viewBox="0 0 512 512">
      <path d="m496 48l-416 0c-9 0-16 7-16 16l0 48-48 0c-9 0-16 7-16 16l0 320c0 9 7 16 16 16l416 0c9 0 16-7 16-16l0-48 48 0c9 0 16-7 16-16l0-320c0-9-7-16-16-16z m-80 96l0 253-86-73c-5-5-12-5-18-2l-69 41-103-118c-3-3-7-5-11-5-5 0-9 2-12 5l-85 84 0-185z m-384 231l95-96 101 116c5 5 14 7 20 3l70-42 89 76-375 0z m448-7l-32 0 0-240c0-9-7-16-16-16l-336 0 0-32 384 0z m-152-80c31 0 56-25 56-56 0-31-25-56-56-56-31 0-56 25-56 56 0 31 25 56 56 56z m0-80c13 0 24 11 24 24 0 13-11 24-24 24-13 0-24-11-24-24 0-13 11-24 24-24z"/>
    </symbol>
  
    <symbol id="icon-music-back" viewBox="0 0 512 512">
      <path d="m256 0c-68 0-133 27-181 75-48 48-75 113-75 181 0 68 27 133 75 181 48 48 113 75 181 75 68 0 133-27 181-75 48-48 75-113 75-181 0-68-27-133-75-181-48-48-113-75-181-75z m158 414c-42 43-98 66-158 66-60 0-116-23-158-66-43-42-66-98-66-158 0-60 23-116 66-158 42-43 98-66 158-66 60 0 116 23 158 66 43 42 66 98 66 158 0 60-23 116-66 158z m-183-260c-6-3-12-2-17 1l-112 88c-4 3-6 8-6 13 0 5 2 10 6 13l112 88c3 2 6 3 10 3 2 0 5-1 7-2 6-2 9-8 9-14l0-176c0-6-3-12-9-14z m-23 157l-70-55 70-55z m183-157c-6-3-12-2-17 1l-112 88c-4 3-6 8-6 13 0 5 2 10 6 13l112 88c3 2 6 3 10 3 2 0 5-1 7-2 6-2 9-8 9-14l0-176c0-6-3-12-9-14z m-23 157l-70-55 70-55z"/>
    </symbol>
  
    <symbol id="icon-music-backtoend" viewBox="0 0 512 512">
      <path d="m256 0c-68 0-133 27-181 75-48 48-75 113-75 181 0 68 27 133 75 181 48 48 113 75 181 75 68 0 133-27 181-75 48-48 75-113 75-181 0-68-27-133-75-181-48-48-113-75-181-75z m158 414c-42 43-98 66-158 66-60 0-116-23-158-66-43-42-66-98-66-158 0-60 23-116 66-158 42-43 98-66 158-66 60 0 116 23 158 66 43 42 66 98 66 158 0 60-23 116-66 158z m-151-260c-6-3-12-2-17 1l-112 88c-4 3-6 8-6 13 0 5 2 10 6 13l112 88c3 2 6 3 10 3 2 0 5-1 7-2 6-2 9-8 9-14l0-176c0-6-3-12-9-14z m-23 157l-70-55 70-55z m166-156l-112 88c-4 3-6 8-6 13 0 5 2 10 6 13l112 88c3 2 6 3 10 3 2 0 5-1 7-2 6-2 9-8 9-14l0-176c0-6-3-12-9-14-6-3-12-2-17 1z m-6 156l-70-55 70-55z m-304-143c-9 0-16 7-16 16l0 144c0 9 7 16 16 16 9 0 16-7 16-16l0-144c0-9-7-16-16-16z"/>
    </symbol>
  
    <symbol id="icon-music-eject" viewBox="0 0 512 512">
      <path d="m256 0c-68 0-133 27-181 75-48 48-75 113-75 181 0 68 27 133 75 181 48 48 113 75 181 75 68 0 133-27 181-75 48-48 75-113 75-181 0-68-27-133-75-181-48-48-113-75-181-75z m158 414c-42 43-98 66-158 66-60 0-116-23-158-66-43-42-66-98-66-158 0-60 23-116 66-158 42-43 98-66 158-66 60 0 116 23 158 66 43 42 66 98 66 158 0 60-23 116-66 158z m-145-264c-6-8-20-8-26 0l-88 112c-3 5-4 11-1 17 2 5 8 9 14 9l176 0c6 0 12-4 14-9 3-6 2-12-1-17z m-68 106l55-70 55 70z m135 48l-160 0c-9 0-16 7-16 16 0 9 7 16 16 16l160 0c9 0 16-7 16-16 0-9-7-16-16-16z"/>
    </symbol>
  
    <symbol id="icon-music-forward" viewBox="0 0 512 512">
      <path d="m256 0c-68 0-133 27-181 75-48 48-75 113-75 181 0 68 27 133 75 181 48 48 113 75 181 75 68 0 133-27 181-75 48-48 75-113 75-181 0-68-27-133-75-181-48-48-113-75-181-75z m158 414c-42 43-98 66-158 66-60 0-116-23-158-66-43-42-66-98-66-158 0-60 23-116 66-158 42-43 98-66 158-66 60 0 116 23 158 66 43 42 66 98 66 158 0 60-23 116-66 158z m-4-171l-112-88c-5-3-12-4-17-1-5 2-9 8-9 14l0 176c0 6 4 12 9 14 2 1 5 2 7 2 4 0 7-1 10-3l112-88c4-3 6-8 6-13 0-5-2-10-6-13z m-106 68l0-110 70 55z m-54-68l-112-88c-5-3-12-4-17-1-5 2-9 8-9 14l0 176c0 6 4 12 9 14 2 1 5 2 7 2 4 0 7-1 10-3l112-88c4-3 6-8 6-13 0-5-2-10-6-13z m-106 68l0-110 70 55z"/>
    </symbol>
  
    <symbol id="icon-music-forwardtoend" viewBox="0 0 512 512">
      <path d="m256 0c-68 0-133 27-181 75-48 48-75 113-75 181 0 68 27 133 75 181 48 48 113 75 181 75 68 0 133-27 181-75 48-48 75-113 75-181 0-68-27-133-75-181-48-48-113-75-181-75z m158 414c-42 43-98 66-158 66-60 0-116-23-158-66-43-42-66-98-66-158 0-60 23-116 66-158 42-43 98-66 158-66 60 0 116 23 158 66 43 42 66 98 66 158 0 60-23 116-66 158z m-36-171l-112-88c-5-3-11-4-17-1-5 2-9 8-9 14l0 176c0 6 4 12 9 14 2 1 5 2 7 2 4 0 7-1 10-3l112-88c4-3 6-8 6-13 0-5-2-10-6-13z m-106 68l0-110 70 55z m-54-68l-112-88c-5-3-12-4-17-1-5 2-9 8-9 14l0 176c0 6 4 12 9 14 2 1 5 2 7 2 4 0 7-1 10-3l112-88c4-3 6-8 6-13 0-5-2-10-6-13z m-106 68l0-110 70 55z m288-127l0 144c0 9 7 16 16 16 9 0 16-7 16-16l0-144c0-9-7-16-16-16-9 0-16 7-16 16z"/>
    </symbol>
  
    <symbol id="icon-music-pause" viewBox="0 0 512 512">
      <path d="m192 168c-9 0-16 7-16 16l0 144c0 9 7 16 16 16 9 0 16-7 16-16l0-144c0-9-7-16-16-16z m128 0c-9 0-16 7-16 16l0 144c0 9 7 16 16 16 9 0 16-7 16-16l0-144c0-9-7-16-16-16z m-64-168c-68 0-133 27-181 75-48 48-75 113-75 181 0 68 27 133 75 181 48 48 113 75 181 75 68 0 133-27 181-75 48-48 75-113 75-181 0-68-27-133-75-181-48-48-113-75-181-75z m158 414c-42 43-98 66-158 66-60 0-116-23-158-66-43-42-66-98-66-158 0-60 23-116 66-158 42-43 98-66 158-66 60 0 116 23 158 66 43 42 66 98 66 158 0 60-23 116-66 158z"/>
    </symbol>
  
    <symbol id="icon-music-play" viewBox="0 0 512 512">
      <path d="m256 0c-68 0-133 27-181 75-48 48-75 113-75 181 0 68 27 133 75 181 48 48 113 75 181 75 68 0 133-27 181-75 48-48 75-113 75-181 0-68-27-133-75-181-48-48-113-75-181-75z m158 414c-42 43-98 66-158 66-60 0-116-23-158-66-43-42-66-98-66-158 0-60 23-116 66-158 42-43 98-66 158-66 60 0 116 23 158 66 43 42 66 98 66 158 0 60-23 116-66 158z m-76-171l-112-88c-5-3-11-4-17-1-6 2-9 8-9 14l0 176c0 6 3 12 9 14 2 1 5 2 7 2 4 0 7-1 10-3l112-88c4-3 6-8 6-13 0-5-2-10-6-13z m-106 68l0-110 70 55z"/>
    </symbol>
  
    <symbol id="icon-music-random" viewBox="0 0 512 512">
      <path d="m511 123c0 0 0-1 0-1 0-1-1-1-1-2 0 0 0 0-1-1 0-1-1-2-2-2l-64-64c-6-7-16-7-22 0-7 6-7 16 0 22l36 37-80 0-256 256-105 0c-9 0-16 7-16 16 0 9 7 16 16 16l119 0 256-256 66 0-36 37c-7 6-7 16 0 22 3 3 7 5 11 5 4 0 8-2 11-5l64-64c1 0 2-1 2-2 1-1 1-1 1-1 0-1 1-1 1-2 0 0 0-1 0-1 0-1 1-1 1-2 0-2 0-4 0-6 0-1-1-1-1-2z m0 267c0 0 0-1 0-1 0-1 1-1 1-2 0-2 0-4 0-6 0-1-1-1-1-2 0 0 0-1 0-1 0-1-1-1-1-2 0 0 0 0-1-1 0-1-1-2-2-2l-64-64c-6-7-16-7-22 0-7 6-7 16 0 22l36 37-66 0-76-75c-6-7-16-7-22 0-7 6-7 16 0 22l84 85 80 0-36 37c-7 6-7 16 0 22 3 3 7 5 11 5 4 0 8-2 11-5l64-64c1 0 2-1 2-2 1-1 1-1 1-1 0-1 1-1 1-2z m-495-246l105 0 76 75c3 3 7 5 11 5 4 0 8-2 11-5 7-6 7-16 0-22l-84-85-119 0c-9 0-16 7-16 16 0 9 7 16 16 16z"/>
    </symbol>
  
    <symbol id="icon-music-repeat" viewBox="0 0 512 512">
      <path d="m432 368l-336 0 0-137 37 36c3 3 7 5 11 5 4 0 8-2 11-5 7-6 7-16 0-22l-64-64c0-1-1-2-2-2-1-1-1-1-1-1-1 0-1-1-2-1 0 0-1 0-1 0-1 0-1-1-2-1-2 0-4 0-6 0-1 0-1 1-2 1 0 0-1 0-1 0-1 0-1 1-2 1 0 0 0 0-1 1-1 0-2 1-2 2l-64 64c-7 6-7 16 0 22 6 7 16 7 22 0l37-36 0 153c0 9 7 16 16 16l352 0c9 0 16-7 16-16 0-9-7-16-16-16z m53-123l-37 36 0-153c0-9-7-16-16-16l-352 0c-9 0-16 7-16 16 0 9 7 16 16 16l336 0 0 137-37-36c-6-7-16-7-22 0-7 6-7 16 0 22l64 64c0 1 1 2 2 2 1 1 1 1 1 1 1 0 1 1 2 1 0 0 1 0 1 0 1 0 1 1 2 1 1 0 2 0 3 0 1 0 2 0 3 0 1 0 1-1 2-1 0 0 1 0 1 0 1 0 1-1 2-1 0 0 0 0 1-1 1 0 2-1 2-2l64-64c7-6 7-16 0-22-6-7-16-7-22 0z"/>
    </symbol>
  
    <symbol id="icon-music-stop" viewBox="0 0 512 512">
      <path d="m256 0c-68 0-133 27-181 75-48 48-75 113-75 181 0 68 27 133 75 181 48 48 113 75 181 75 68 0 133-27 181-75 48-48 75-113 75-181 0-68-27-133-75-181-48-48-113-75-181-75z m158 414c-42 43-98 66-158 66-60 0-116-23-158-66-43-42-66-98-66-158 0-60 23-116 66-158 42-43 98-66 158-66 60 0 116 23 158 66 43 42 66 98 66 158 0 60-23 116-66 158z m-78-254l-160 0c-9 0-16 7-16 16l0 160c0 9 7 16 16 16l160 0c9 0 16-7 16-16l0-160c0-9-7-16-16-16z m-16 160l-128 0 0-128 128 0z"/>
    </symbol>
  
    <symbol id="icon-musical-note" viewBox="0 0 512 512">
      <path d="m144 512c44 0 80-36 80-80l0-227 192-41 0 156c-13-10-30-16-48-16-44 0-80 36-80 80 0 44 36 80 80 80 44 0 80-36 80-80l0-240c0 0 0 0 0 0l0-128c0-5-2-9-6-12-4-3-9-5-13-4l-224 48c-8 2-13 8-13 16l0 128c0 0 0 0 0 0l0 176c-13-10-30-16-48-16-44 0-80 36-80 80 0 44 36 80 80 80z m224-80c-26 0-48-22-48-48 0-26 22-48 48-48 26 0 48 22 48 48 0 26-22 48-48 48z m48-396l0 95-192 41 0-95z m-272 348c26 0 48 22 48 48 0 26-22 48-48 48-26 0-48-22-48-48 0-26 22-48 48-48z"/>
    </symbol>
  
    <symbol id="icon-musical-note-2" viewBox="0 0 512 512">
      <path d="m176 512c44 0 80-36 80-80l0-228 149-45c6-2 11-8 11-15l0-128c0-5-2-10-6-13-5-3-10-4-15-2l-160 48c-6 2-11 8-11 15l0 128c0 0 0 0 0 0l0 176c-13-10-30-16-48-16-44 0-80 36-80 80 0 44 36 80 80 80z m80-436l128-38 0 94-128 38z m-80 308c26 0 48 22 48 48 0 26-22 48-48 48-26 0-48-22-48-48 0-26 22-48 48-48z"/>
    </symbol>
  
    <symbol id="icon-old-video-cam" viewBox="0 0 512 512">
      <path d="m504 178c-5-3-11-3-16 0l-112 66 0-52c0-9-7-16-16-16l-41 0c16-17 25-39 25-64 0-53-43-96-96-96-45 0-84 32-93 74-10-6-22-10-35-10-35 0-64 29-64 64 0 12 3 23 9 32l-49 0c-9 0-16 7-16 16l0 192c0 7 5 14 12 16l344 80c2 0 3 0 4 0 4 0 7-1 10-3 4-4 6-8 6-13l0-52 112 66c5 3 11 3 16 0 5-3 8-8 8-14l0-272c0-6-3-11-8-14z m-256-130c35 0 64 29 64 64 0 35-29 64-64 64-35 0-64-29-64-64 0-35 29-64 64-64z m-71 128l-2 0c1 0 1-1 1-1 0 0 0 1 1 1z m-89-32c0-18 14-32 32-32 18 0 32 14 32 32 0 18-14 32-32 32-18 0-32-14-32-32z m392 292l-112-66c-5-3-11-3-16 0-5 3-8 8-8 14l0 60-312-73 0-163 312 0 0 64c0 6 3 11 8 14 5 3 11 3 16 0l112-66z"/>
    </symbol>
  
    <symbol id="icon-paper-pen" viewBox="0 0 512 512">
      <path d="m425 453l18 36c4 9 12 15 21 15 9 0 17-6 21-15l18-36c5-10 9-26 9-37l0-368c0-18-14-32-32-32l-32 0c-18 0-32 14-32 32l-16 0c-18 0-32 14-32 32l0 64c0 9 7 16 16 16 9 0 16-7 16-16l0-64 16 0 0 336c0 11 4 27 9 37z m23-405l32 0 0 368c0 6-3 18-5 23l-11 21-11-21c-2-5-5-17-5-23z m-416 448l288 0c18 0 32-14 32-32l0-320c0-13-7-29-16-39l-73-73c-10-9-26-16-39-16l-192 0c-18 0-32 14-32 32l0 416c0 18 14 32 32 32z m265-384l-41 0 0-41z m-265-64l192 0 0 64c0 18 14 32 32 32l64 0 0 320-288 0z m48 80l88 0c9 0 16-7 16-16 0-9-7-16-16-16l-88 0c-9 0-16 7-16 16 0 9 7 16 16 16z m192 48l-192 0c-9 0-16 7-16 16 0 9 7 16 16 16l192 0c9 0 16-7 16-16 0-9-7-16-16-16z m0 64l-192 0c-9 0-16 7-16 16 0 9 7 16 16 16l192 0c9 0 16-7 16-16 0-9-7-16-16-16z m0 64l-192 0c-9 0-16 7-16 16 0 9 7 16 16 16l192 0c9 0 16-7 16-16 0-9-7-16-16-16z m0 64l-192 0c-9 0-16 7-16 16 0 9 7 16 16 16l192 0c9 0 16-7 16-16 0-9-7-16-16-16z"/>
    </symbol>
  
    <symbol id="icon-paper-pencil" viewBox="0 0 512 512">
      <path d="m0 464c0 18 14 32 32 32l288 0c18 0 32-14 32-32l0-320c0-13-7-29-16-39l-73-73c-10-9-26-16-39-16l-192 0c-18 0-32 14-32 32z m297-352l-41 0 0-41z m-265-64l192 0 0 64c0 18 14 32 32 32l64 0 0 320-288 0z m448-32l-32 0c-18 0-32 14-32 32l0 368c0 11 4 27 9 37l18 36c4 9 12 15 21 15 9 0 17-6 21-15l18-36c5-10 9-26 9-37l0-368c0-18-14-32-32-32z m0 32l0 48-32 0 0-48z m-5 391l-11 21-11-21c-2-5-5-17-5-23l0-288 32 0 0 288c0 6-3 18-5 23z m-395-311l88 0c9 0 16-7 16-16 0-9-7-16-16-16l-88 0c-9 0-16 7-16 16 0 9 7 16 16 16z m192 48l-192 0c-9 0-16 7-16 16 0 9 7 16 16 16l192 0c9 0 16-7 16-16 0-9-7-16-16-16z m0 64l-192 0c-9 0-16 7-16 16 0 9 7 16 16 16l192 0c9 0 16-7 16-16 0-9-7-16-16-16z m0 64l-192 0c-9 0-16 7-16 16 0 9 7 16 16 16l192 0c9 0 16-7 16-16 0-9-7-16-16-16z m0 64l-192 0c-9 0-16 7-16 16 0 9 7 16 16 16l192 0c9 0 16-7 16-16 0-9-7-16-16-16z"/>
    </symbol>
  
    <symbol id="icon-paper-sheet" viewBox="0 0 512 512">
      <path d="m416 512c18 0 32-14 32-32l0-448c0-18-14-32-32-32l-208 0c-13 0-29 7-39 16l-89 89c-9 10-16 26-16 39l0 336c0 18 14 32 32 32z m0-480l0 448-320 0 0-336 80 0c18 0 32-14 32-32l0-80z m-240 23l0 57-57 0z m80 73l96 0c9 0 16-7 16-16 0-9-7-16-16-16l-96 0c-9 0-16 7-16 16 0 9 7 16 16 16z m96 48l-192 0c-9 0-16 7-16 16 0 9 7 16 16 16l192 0c9 0 16-7 16-16 0-9-7-16-16-16z m0 80l-192 0c-9 0-16 7-16 16 0 9 7 16 16 16l192 0c9 0 16-7 16-16 0-9-7-16-16-16z m0 80l-192 0c-9 0-16 7-16 16 0 9 7 16 16 16l192 0c9 0 16-7 16-16 0-9-7-16-16-16z m0 80l-192 0c-9 0-16 7-16 16 0 9 7 16 16 16l192 0c9 0 16-7 16-16 0-9-7-16-16-16z"/>
    </symbol>
  
    <symbol id="icon-pen-pencil-ruler" viewBox="0 0 512 512">
      <path d="m280 512c18 0 32-14 32-32l0-448c0-18-14-32-32-32l-96 0c-18 0-32 14-32 32l0 448c0 18 14 32 32 32z m-96-480l96 0 0 48-48 0c-9 0-16 7-16 16 0 9 7 16 16 16l48 0 0 48-8 0c-9 0-16 7-16 16 0 9 7 16 16 16l8 0 0 48-48 0c-9 0-16 7-16 16 0 9 7 16 16 16l48 0 0 48-8 0c-9 0-16 7-16 16 0 9 7 16 16 16l8 0 0 48-48 0c-9 0-16 7-16 16 0 9 7 16 16 16l48 0 0 48-96 0z m-112 472c9 0 17-6 21-15l18-36c5-10 9-26 9-37l0-368c0-18-14-32-32-32l-32 0c-18 0-32 14-32 32l0 368c0 11 4 27 9 37l18 36c4 9 12 15 21 15z m11-65l-11 21-11-21c-2-5-5-17-5-23l0-288 32 0 0 288c0 6-3 18-5 23z m5-391l0 48-32 0 0-48z m343 11l-18-36c-4-9-12-15-21-15-9 0-17 6-21 15l-18 36c-5 10-9 26-9 37l0 368c0 18 14 32 32 32l32 0c18 0 32-14 32-32l16 0c18 0 32-14 32-32l0-64c0-9-7-16-16-16-9 0-16 7-16 16l0 64-16 0 0-336c0-11-4-27-9-37z m-23 405l-32 0 0-368c0-6 3-18 5-23l11-21 11 21c2 5 5 17 5 23z"/>
    </symbol>
  
    <symbol id="icon-pencil" viewBox="0 0 512 512">
      <path d="m25 507c4 0 8-1 12-3l115-51c10-4 23-13 31-21l313-313c6-6 9-14 9-23 0-9-3-17-9-23l-57-57c-6-6-14-9-23-9-9 0-17 3-23 9l-321 321c-8 8-17 22-21 32l-44 106c-4 12-1 19 1 23 4 6 10 9 17 9z m135-98c0 0 0 0 0 0l-57-57 265-265 57 57z m256-370l57 57-25 25-57-57z m-335 342c0-1 1-3 2-4l49 50-86 38z"/>
    </symbol>
  
    <symbol id="icon-pencil-ruler" viewBox="0 0 512 512">
      <path d="m21 8c-10 0-21 7-21 24l0 448c0 18 14 32 32 32l448 0c16 0 21-9 23-13 1-4 4-15-7-26l-457-457c-7-7-14-8-18-8z m11 472l0-32 32 0c9 0 16-7 16-16 0-9-7-16-16-16l-32 0 0-32 16 0c9 0 16-7 16-16 0-9-7-16-16-16l-16 0 0-32 32 0c9 0 16-7 16-16 0-9-7-16-16-16l-32 0 0-32 16 0c9 0 16-7 16-16 0-9-7-16-16-16l-16 0 0-32 32 0c9 0 16-7 16-16 0-9-7-16-16-16l-32 0 0-104 425 424z m96-32l192 0c16 0 21-9 23-13 1-4 4-15-7-26l-201-201c-7-7-14-8-18-8-10 0-21 7-21 24l0 192c0 18 14 32 32 32z m0-201l169 169-169 0z m316 124l33 9c2 0 5 1 7 1 0 0 0 0 0 0 8 0 15-4 19-10 5-6 7-14 5-22l-9-33c-2-12-11-26-19-35l-265-265c-6-6-14-9-23-9-9 0-17 3-23 9l-25 25c-12 13-12 33 0 46l265 265c9 8 23 17 35 19z m24-48l6 23-23-6c-5-1-15-6-19-11l-217-217 25-25 217 217c5 4 10 14 11 19z m-276-284l25 25-25 25-25-25z"/>
    </symbol>
  
    <symbol id="icon-plus" viewBox="0 0 512 512">
      <path d="m256 0c-68 0-133 27-181 75-48 48-75 113-75 181 0 68 27 133 75 181 48 48 113 75 181 75 68 0 133-27 181-75 48-48 75-113 75-181 0-68-27-133-75-181-48-48-113-75-181-75z m158 414c-42 43-98 66-158 66-60 0-116-23-158-66-43-42-66-98-66-158 0-60 23-116 66-158 42-43 98-66 158-66 60 0 116 23 158 66 43 42 66 98 66 158 0 60-23 116-66 158z m-14-174l-128 0 0-128c0-9-7-16-16-16-9 0-16 7-16 16l0 128-128 0c-9 0-16 7-16 16 0 9 7 16 16 16l128 0 0 128c0 9 7 16 16 16 9 0 16-7 16-16l0-128 128 0c9 0 16-7 16-16 0-9-7-16-16-16z"/>
    </symbol>
  
    <symbol id="icon-portable-pc" viewBox="0 0 512 512">
      <path d="m16 432l480 0c9 0 16-7 16-16l0-48c0-9-7-16-16-16l-32 0 0-256c0-9-7-16-16-16l-384 0c-9 0-16 7-16 16l0 256-32 0c-9 0-16 7-16 16l0 48c0 9 7 16 16 16z m64-320l352 0 0 240-352 0z m-48 272l448 0 0 16-448 0z m213-251c-3 3-5 7-5 11 0 4 2 8 5 11 3 3 7 5 11 5 4 0 8-2 11-5 3-3 5-7 5-11 0-4-2-8-5-11-6-6-16-6-22 0z"/>
    </symbol>
  
    <symbol id="icon-pricetag" viewBox="0 0 512 512">
      <path d="m197 507c3 3 7 5 11 5 4 0 8-2 11-5l288-288c3-3 5-7 5-11l0-192c0-9-7-16-16-16l-192 0c-4 0-8 2-11 5l-288 288c-7 6-7 16 0 22z m114-475l169 0 0 169-272 272-169-169z m65 168c35 0 64-29 64-64 0-35-29-64-64-64-35 0-64 29-64 64 0 35 29 64 64 64z m0-96c18 0 32 14 32 32 0 18-14 32-32 32-18 0-32-14-32-32 0-18 14-32 32-32z"/>
    </symbol>
  
    <symbol id="icon-printer" viewBox="0 0 512 512">
      <path d="m16 432l96 0 0 64c0 9 7 16 16 16l256 0c9 0 16-7 16-16l0-64 96 0c9 0 16-7 16-16l0-256c0-9-7-16-16-16l-96 0 0-128c0-9-7-16-16-16l-256 0c-9 0-16 7-16 16l0 128-96 0c-9 0-16 7-16 16l0 256c0 9 7 16 16 16z m352 48l-224 0 0-160 224 0z m-224-448l224 0 0 112-224 0z m-112 144l448 0 0 224-80 0 0-96c0-9-7-16-16-16l-256 0c-9 0-16 7-16 16l0 96-80 0z m59 29c-6-6-16-6-22 0-3 3-5 7-5 11 0 4 2 8 5 11 3 3 7 5 11 5 4 0 8-2 11-5 3-3 5-7 5-11 0-4-2-8-5-11z m37 27c4 0 8-2 11-5 3-3 5-7 5-11 0-4-2-8-5-11-6-6-16-6-22 0-3 3-5 7-5 11 0 4 2 8 5 11 3 3 7 5 11 5z m208 120l-160 0c-9 0-16 7-16 16 0 9 7 16 16 16l160 0c9 0 16-7 16-16 0-9-7-16-16-16z m0 64l-160 0c-9 0-16 7-16 16 0 9 7 16 16 16l160 0c9 0 16-7 16-16 0-9-7-16-16-16z"/>
    </symbol>
  
    <symbol id="icon-profile" viewBox="0 0 512 512">
      <path d="m256 336c66 0 120-68 120-152 0-84-54-152-120-152-66 0-120 68-120 152 0 84 54 152 120 152z m0-272c48 0 88 55 88 120 0 65-40 120-88 120-48 0-88-55-88-120 0-65 40-120 88-120z m-223 299l-32 96c-2 5-1 10 2 14 3 5 8 7 13 7l480 0c5 0 10-2 13-7 3-4 4-9 2-14l-32-96c-1-5-6-9-11-10l-112-32c-3-1-8-1-11 1l-89 44-89-44c-3-2-8-2-11-1l-112 32c-5 1-10 5-11 10z m125-10l91 45c4 3 10 3 14 0l91-45 97 28 23 67-436 0 23-67z"/>
    </symbol>
  
    <symbol id="icon-profile-add" viewBox="0 0 512 512">
      <path d="m256 336c69 0 128-70 128-152 0-82-59-152-128-152-69 0-128 70-128 152 0 82 59 152 128 152z m0-272c52 0 96 55 96 120 0 65-44 120-96 120-52 0-96-55-96-120 0-65 44-120 96-120z m-223 299l-32 96c-2 5-1 10 2 14 3 5 8 7 13 7l480 0c5 0 10-2 13-7 3-4 4-9 2-14l-32-96c-1-5-6-9-11-10l-112-32c-3-1-8-1-11 1l-89 44-89-44c-3-2-8-2-11-1l-112 32c-5 1-10 5-11 10z m125-10l91 45c4 3 10 3 14 0l91-45 97 28 23 67-436 0 23-67z m338-305l-32 0 0-32c0-9-7-16-16-16-9 0-16 7-16 16l0 32-32 0c-9 0-16 7-16 16 0 9 7 16 16 16l32 0 0 32c0 9 7 16 16 16 9 0 16-7 16-16l0-32 32 0c9 0 16-7 16-16 0-9-7-16-16-16z"/>
    </symbol>
  
    <symbol id="icon-profile-remove" viewBox="0 0 512 512">
      <path d="m256 336c69 0 128-70 128-152 0-82-59-152-128-152-69 0-128 70-128 152 0 82 59 152 128 152z m0-272c52 0 96 55 96 120 0 65-44 120-96 120-52 0-96-55-96-120 0-65 44-120 96-120z m-223 299l-32 96c-2 5-1 10 2 14 3 5 8 7 13 7l480 0c5 0 10-2 13-7 3-4 4-9 2-14l-32-96c-1-5-6-9-11-10l-112-32c-3-1-8-1-11 1l-89 44-89-44c-3-2-8-2-11-1l-112 32c-5 1-10 5-11 10z m125-10l91 45c4 3 10 3 14 0l91-45 97 28 23 67-436 0 23-67z m231-230c3 3 7 5 11 5 4 0 8-2 11-5l29-28 29 28c3 3 7 5 11 5 4 0 8-2 11-5 7-6 7-16 0-22l-28-29 28-29c7-6 7-16 0-22-6-7-16-7-22 0l-29 28-29-28c-6-7-16-7-22 0-7 6-7 16 0 22l28 29-28 29c-7 6-7 16 0 22z"/>
    </symbol>
  
    <symbol id="icon-rainy" viewBox="0 0 512 512">
      <path d="m187 357c-6-7-16-7-22 0l-48 48c-7 6-7 16 0 22 3 3 7 5 11 5 4 0 8-2 11-5l48-48c7-6 7-16 0-22z m186 0l-64 64c-7 6-7 16 0 22 3 3 7 5 11 5 4 0 8-2 11-5l64-64c7-6 7-16 0-22-6-7-16-7-22 0z m-104 0l-112 112c-7 6-7 16 0 22 3 3 7 5 11 5 4 0 8-2 11-5l112-112c7-6 7-16 0-22-6-7-16-7-22 0z m178-180c-7-90-83-161-175-161-82 0-152 53-173 128l-3 0c-53 0-96 43-96 96 0 53 43 96 96 96l336 0c44 0 80-36 80-80 0-39-28-71-65-79z m-15 127l-336 0c-35 0-64-29-64-64 0-35 29-64 64-64l16 0c8 0 14-5 16-13 12-67 73-115 144-115 79 0 144 65 144 144 0 9 7 16 16 16 26 0 48 22 48 48 0 26-22 48-48 48z"/>
    </symbol>
  
    <symbol id="icon-rotate" viewBox="0 0 512 512">
      <path d="m240 16c0 9 7 16 16 16 60 0 116 23 158 66 43 42 66 98 66 158 0 59-23 115-64 157l0-45c0-9-7-16-16-16-9 0-16 7-16 16l0 96 96 0c9 0 16-7 16-16 0-9-7-16-16-16l-38 0c45-48 70-110 70-176 0-68-27-133-75-181-48-48-113-75-181-75-9 0-16 7-16 16z m-165 421c48 48 113 75 181 75 9 0 16-7 16-16 0-9-7-16-16-16-60 0-116-23-158-66-43-42-66-98-66-158 0-59 23-115 64-157l0 45c0 9 7 16 16 16 9 0 16-7 16-16l0-96-96 0c-9 0-16 7-16 16 0 9 7 16 16 16l38 0c-45 48-70 110-70 176 0 68 27 133 75 181z"/>
    </symbol>
  
    <symbol id="icon-setting-1" viewBox="0 0 512 512">
      <path d="m363 277c-6-7-16-7-22 0l-13 12-25-25 56-56 25 0c63 0 96-39 96-112 0-6-3-11-8-14-4-3-10-3-15 0l-54 27-16-16 27-54c3-5 3-11 0-15-3-5-8-8-14-8-73 0-112 33-112 96l0 25-56 56-89-89 12-13c4-3 5-8 5-13-1-5-4-9-8-12l-80-48c-6-4-14-3-19 3l-16 16c-6 5-6 13-3 19l48 80c3 4 7 7 12 8 1 0 1 0 2 0 4 0 8-2 11-5l13-12 89 89-188 189c-2 1-3 4-4 6l-16 48c-2 6-1 12 4 16l16 16c3 3 7 5 11 5 2 0 3 0 5-1l48-16c2-1 5-2 6-4l189-188 25 25-12 13c-7 6-7 16 0 22l144 144c3 3 7 5 11 5 4 0 8-2 11-5l48-48c7-6 7-16 0-22z m-264-175l-28-47 47 28z m-28 348l-35 12-2-2 12-35 269-270c3-3 5-7 5-11l0-32c0-27 7-55 53-62l-19 39c-3 6-2 13 3 18l32 32c5 5 12 6 18 3l39-19c-7 46-35 53-62 53l-32 0c-4 0-8 2-11 5z m377 7l-121-121 25-25 121 121z"/>
    </symbol>
  
    <symbol id="icon-setting-2" viewBox="0 0 512 512">
      <path d="m16 320l52 0 10 28-41 41c-7 6-7 16 0 22l64 64c6 7 16 7 22 0l41-41 28 10 0 52c0 9 7 16 16 16l96 0c9 0 16-7 16-16l0-52 28-10 41 41c6 7 16 7 22 0l64-64c7-6 7-16 0-22l-41-41 10-28 52 0c9 0 16-7 16-16l0-96c0-9-7-16-16-16l-52 0-10-28 41-41c7-6 7-16 0-22l-64-64c-6-7-16-7-22 0l-41 41-28-10 0-52c0-9-7-16-16-16l-96 0c-9 0-16 7-16 16l0 52-28 10-41-41c-6-7-16-7-22 0l-64 64c-7 6-7 16 0 22l41 41-10 28-52 0c-9 0-16 7-16 16l0 96c0 9 7 16 16 16z m16-96l48 0c7 0 13-4 15-11l16-48c2-6 1-12-4-16l-36-37 41-41 37 36c4 5 10 6 16 4l48-16c7-2 11-8 11-15l0-48 64 0 0 48c0 7 4 13 11 15l48 16c6 2 12 1 16-4l37-36 41 41-36 37c-5 4-6 10-4 16l16 48c2 7 8 11 15 11l48 0 0 64-48 0c-7 0-13 4-15 11l-16 48c-2 6-1 12 4 16l36 37-41 41-37-36c-4-5-10-6-16-4l-48 16c-7 2-11 8-11 15l0 48-64 0 0-48c0-7-4-13-11-15l-48-16c-6-2-12-1-16 4l-37 36-41-41 36-37c5-4 6-10 4-16l-16-48c-2-7-8-11-15-11l-48 0z m224 96c35 0 64-29 64-64 0-35-29-64-64-64-35 0-64 29-64 64 0 35 29 64 64 64z m0-96c18 0 32 14 32 32 0 18-14 32-32 32-18 0-32-14-32-32 0-18 14-32 32-32z"/>
    </symbol>
  
    <symbol id="icon-shield-down" viewBox="0 0 512 512">
      <path d="m248 512c4 0 8-2 11-5l136-136c3-3 5-7 5-11l0-344c0-9-7-16-16-16l-272 0c-9 0-16 7-16 16l0 344c0 4 2 8 5 11l136 136c3 3 7 5 11 5z m-120-480l240 0 0 321-120 120-120-120z"/>
    </symbol>
  
    <symbol id="icon-shield-left" viewBox="0 0 512 512">
      <path d="m141 403c3 3 7 5 11 5l344 0c9 0 16-7 16-16l0-272c0-9-7-16-16-16l-344 0c-4 0-8 2-11 5l-136 136c-7 6-7 16 0 22z m18-267l321 0 0 240-321 0-120-120z"/>
    </symbol>
  
    <symbol id="icon-shield-right" viewBox="0 0 512 512">
      <path d="m16 408l344 0c4 0 8-2 11-5l136-136c7-6 7-16 0-22l-136-136c-3-3-7-5-11-5l-344 0c-9 0-16 7-16 16l0 272c0 9 7 16 16 16z m16-272l321 0 120 120-120 120-321 0z"/>
    </symbol>
  
    <symbol id="icon-shield-up" viewBox="0 0 512 512">
      <path d="m384 512c9 0 16-7 16-16l0-344c0-4-2-8-5-11l-136-136c-6-7-16-7-22 0l-136 136c-3 3-5 7-5 11l0 344c0 9 7 16 16 16z m-256-353l120-120 120 120 0 321-240 0z"/>
    </symbol>
  
    <symbol id="icon-shopping-cart" viewBox="0 0 512 512">
      <path d="m0 80c0 9 7 16 16 16l49 0 31 353c0 0 0 0 0 0 0 35 29 63 64 63 30 0 55-20 62-48l68 0c7 28 32 48 62 48 35 0 64-29 64-64 0-35-29-64-64-64-30 0-55 20-62 48l-68 0c-7-28-32-48-62-48-14 0-26 4-37 12l-4-52c0 0 1 0 1 0 0 0 1 0 1 0l328-16c7 0 13-5 14-12l48-168c2-4 1-10-2-14-3-4-8-6-13-6l-396 0-4-49c-1-9-8-15-16-15l-64 0c-9 0-16 7-16 16z m352 336c18 0 32 14 32 32 0 18-14 32-32 32-18 0-32-14-32-32 0-18 14-32 32-32z m-192 0c18 0 32 14 32 32 0 18-14 32-32 32-18 0-32-14-32-32 0-18 14-32 32-32z m315-256l-39 137-317 15c-1 0-2 0-3 0l-13-152z"/>
    </symbol>
  
    <symbol id="icon-shopping-cart-content" viewBox="0 0 512 512">
      <path d="m0 80c0 9 7 16 16 16l49 0 31 353c0 0 0 0 0 0 0 35 29 63 64 63 30 0 55-20 62-48l68 0c7 28 32 48 62 48 35 0 64-29 64-64 0-35-29-64-64-64-30 0-55 20-62 48l-68 0c-7-28-32-48-62-48-14 0-26 4-37 12l-4-52c0 0 1 0 1 0 0 0 1 0 1 0l328-16c7 0 13-5 14-12l48-168c2-4 1-10-2-14-3-4-8-6-13-6l-52 0-29-100c-2-7-8-12-15-12l-112 0c-4 0-8 2-11 5l-44 43-73 0c-7 0-14 5-16 12l-12 52-32 0-4-49c-1-9-8-15-16-15l-64 0c-9 0-16 7-16 16z m352 336c18 0 32 14 32 32 0 18-14 32-32 32-18 0-32-14-32-32 0-18 14-32 32-32z m-192 0c18 0 32 14 32 32 0 18-14 32-32 32-18 0-32-14-32-32 0-18 14-32 32-32z m135-368l93 0 23 80-143 0-10-43z m-123 48l56 0 8 32-72 0z m260 64c0 0 0 0 0 0 0 0 0 0 0 0l43 0-39 137-317 15c-1 0-2 0-3 0l-13-152z"/>
    </symbol>
  
    <symbol id="icon-sinth" viewBox="0 0 512 512">
      <path d="m496 0l-480 0c-9 0-16 7-16 16l0 480c0 9 7 16 16 16l480 0c9 0 16-7 16-16l0-480c0-9-7-16-16-16z m-16 480l-448 0 0-448 448 0z m-400-352l32 0 0 304c0 9 7 16 16 16 9 0 16-7 16-16l0-304 32 0c9 0 16-7 16-16 0-9-7-16-16-16l-32 0 0-16c0-9-7-16-16-16-9 0-16 7-16 16l0 16-32 0c-9 0-16 7-16 16 0 9 7 16 16 16z m256 288l32 0 0 16c0 9 7 16 16 16 9 0 16-7 16-16l0-16 32 0c9 0 16-7 16-16 0-9-7-16-16-16l-32 0 0-304c0-9-7-16-16-16-9 0-16 7-16 16l0 304-32 0c-9 0-16 7-16 16 0 9 7 16 16 16z m-128-144l32 0 0 160c0 9 7 16 16 16 9 0 16-7 16-16l0-160 32 0c9 0 16-7 16-16 0-9-7-16-16-16l-32 0 0-160c0-9-7-16-16-16-9 0-16 7-16 16l0 160-32 0c-9 0-16 7-16 16 0 9 7 16 16 16z"/>
    </symbol>
  
    <symbol id="icon-smartphone" viewBox="0 0 512 512">
      <path d="m384 0l-256 0c-9 0-16 7-16 16l0 480c0 9 7 16 16 16l256 0c9 0 16-7 16-16l0-480c0-9-7-16-16-16z m-16 480l-224 0 0-448 224 0z m-104-64l-16 0c-9 0-16 7-16 16 0 9 7 16 16 16l16 0c9 0 16-7 16-16 0-9-7-16-16-16z m-64-320l112 0c9 0 16-7 16-16 0-9-7-16-16-16l-112 0c-9 0-16 7-16 16 0 9 7 16 16 16z"/>
    </symbol>
  
    <symbol id="icon-spread" viewBox="0 0 512 512">
      <path d="m494 32l-238 32-238-32c-4 0-9 1-13 4-3 3-5 7-5 12l0 384c0 8 6 15 14 16l240 32c1 0 1 0 2 0 1 0 1 0 2 0l240-32c8-1 14-8 14-16l0-384c0-5-2-9-5-12-4-3-9-4-13-4z m-462 34l208 28 0 352-208-28z m448 352l-208 28 0-352 208-28z m-402-274l128 16c1 0 1 0 2 0 8 0 15-6 16-14 1-9-5-17-14-18l-128-16c-9-1-17 5-18 14-1 9 5 17 14 18z m132 64l-128-16c-9-1-17 5-18 14-1 9 5 17 14 18l128 16c1 0 1 0 2 0 8 0 15-6 16-14 1-9-5-17-14-18z m0 80l-128-16c-9-1-17 5-18 14-1 9 5 17 14 18l128 16c1 0 1 0 2 0 8 0 15-6 16-14 1-9-5-17-14-18z m0 80l-128-16c-9-1-17 5-18 14-1 9 5 17 14 18l128 16c1 0 1 0 2 0 8 0 15-6 16-14 1-9-5-17-14-18z m94-208c1 0 1 0 2 0l128-16c9-1 15-9 14-18-1-9-9-15-18-14l-128 16c-9 1-15 9-14 18 1 8 8 14 16 14z m0 80c1 0 1 0 2 0l128-16c9-1 15-9 14-18-1-9-9-15-18-14l-128 16c-9 1-15 9-14 18 1 8 8 14 16 14z m0 80c1 0 1 0 2 0l128-16c9-1 15-9 14-18-1-9-9-15-18-14l-128 16c-9 1-15 9-14 18 1 8 8 14 16 14z m126 32l-128 16c-9 1-15 9-14 18 1 8 8 14 16 14 1 0 1 0 2 0l128-16c9-1 15-9 14-18-1-9-9-15-18-14z"/>
    </symbol>
  
    <symbol id="icon-squares" viewBox="0 0 512 512">
      <path d="m16 224l192 0c9 0 16-7 16-16l0-192c0-9-7-16-16-16l-192 0c-9 0-16 7-16 16l0 192c0 9 7 16 16 16z m16-192l160 0 0 160-160 0z m480-16c0-9-7-16-16-16l-192 0c-9 0-16 7-16 16l0 192c0 9 7 16 16 16l192 0c9 0 16-7 16-16z m-32 176l-160 0 0-160 160 0z m-464 320l200 0c9 0 16-7 16-16l0-200c0-9-7-16-16-16l-200 0c-9 0-16 7-16 16l0 200c0 9 7 16 16 16z m16-200l168 0 0 168-168 0z m464-24l-192 0c-9 0-16 7-16 16l0 192c0 9 7 16 16 16l192 0c9 0 16-7 16-16l0-192c0-9-7-16-16-16z m-16 192l-160 0 0-160 160 0z"/>
    </symbol>
  
    <symbol id="icon-stormy" viewBox="0 0 512 512">
      <path d="m331 387c7-6 7-16 0-22-6-7-16-7-22 0l-46 45 48 32-18 19c-7 6-7 16 0 22 3 3 7 5 11 5 4 0 8-2 11-5l46-45-48-32z m-128 0c7-6 7-16 0-22-6-7-16-7-22 0l-46 45 48 32-18 19c-7 6-7 16 0 22 3 3 7 5 11 5 4 0 8-2 11-5l46-45-48-32z m244-202c-7-90-83-161-175-161-82 0-152 53-173 128l-3 0c-53 0-96 43-96 96 0 53 43 96 96 96l336 0c44 0 80-36 80-80 0-39-28-71-65-79z m-15 127l-336 0c-35 0-64-29-64-64 0-35 29-64 64-64l16 0c8 0 14-5 16-13 12-67 73-115 144-115 79 0 144 65 144 144 0 9 7 16 16 16 26 0 48 22 48 48 0 26-22 48-48 48z"/>
    </symbol>
  
    <symbol id="icon-sunny" viewBox="0 0 512 512">
      <path d="m256 112c-79 0-144 65-144 144 0 79 65 144 144 144 79 0 144-65 144-144 0-79-65-144-144-144z m0 256c-62 0-112-50-112-112 0-62 50-112 112-112 62 0 112 50 112 112 0 62-50 112-112 112z m-16-352l0 64c0 9 7 16 16 16 9 0 16-7 16-16l0-64c0-9-7-16-16-16-9 0-16 7-16 16z m16 400c-9 0-16 7-16 16l0 64c0 9 7 16 16 16 9 0 16-7 16-16l0-64c0-9-7-16-16-16z m240-176l-64 0c-9 0-16 7-16 16 0 9 7 16 16 16l64 0c9 0 16-7 16-16 0-9-7-16-16-16z m-400 16c0-9-7-16-16-16l-64 0c-9 0-16 7-16 16 0 9 7 16 16 16l64 0c9 0 16-7 16-16z m309-171l-32 32c-7 6-7 16 0 22 3 3 7 5 11 5 4 0 8-2 11-5l32-32c7-6 7-16 0-22-6-7-16-7-22 0z m-288 288l-32 32c-7 6-7 16 0 22 3 3 7 5 11 5 4 0 8-2 11-5l32-32c7-6 7-16 0-22-6-7-16-7-22 0z m278 0c-6-7-16-7-22 0-7 6-7 16 0 22l32 32c3 3 7 5 11 5 4 0 8-2 11-5 7-6 7-16 0-22z m-310-288c-7 6-7 16 0 22l32 32c3 3 7 5 11 5 4 0 8-2 11-5 7-6 7-16 0-22l-32-32c-6-7-16-7-22 0z"/>
    </symbol>
  
    <symbol id="icon-tablet" viewBox="0 0 512 512">
      <path d="m448 496l0-480c0-9-7-16-16-16l-352 0c-9 0-16 7-16 16l0 480c0 9 7 16 16 16l352 0c9 0 16-7 16-16z m-32-16l-320 0 0-448 320 0z m-171-59c-3 3-5 7-5 11 0 4 2 8 5 11 3 3 7 5 11 5 4 0 8-2 11-5 3-3 5-7 5-11 0-4-2-8-5-11-6-6-16-6-22 0z m-29-325l80 0c9 0 16-7 16-16 0-9-7-16-16-16l-80 0c-9 0-16 7-16 16 0 9 7 16 16 16z"/>
    </symbol>
  
    <symbol id="icon-three-stripes-horiz" viewBox="0 0 512 512">
      <path d="m496 304l-480 0c-9 0-16 7-16 16 0 9 7 16 16 16l480 0c9 0 16-7 16-16 0-9-7-16-16-16z m0-64l-480 0c-9 0-16 7-16 16 0 9 7 16 16 16l480 0c9 0 16-7 16-16 0-9-7-16-16-16z m0-64l-480 0c-9 0-16 7-16 16 0 9 7 16 16 16l480 0c9 0 16-7 16-16 0-9-7-16-16-16z"/>
    </symbol>
  
    <symbol id="icon-three-stripes-vert" viewBox="0 0 512 512">
      <path d="m192 512c9 0 16-7 16-16l0-480c0-9-7-16-16-16-9 0-16 7-16 16l0 480c0 9 7 16 16 16z m64 0c9 0 16-7 16-16l0-480c0-9-7-16-16-16-9 0-16 7-16 16l0 480c0 9 7 16 16 16z m64 0c9 0 16-7 16-16l0-480c0-9-7-16-16-16-9 0-16 7-16 16l0 480c0 9 7 16 16 16z"/>
    </symbol>
  
    <symbol id="icon-ticket" viewBox="0 0 512 512">
      <path d="m5 331l42 43c7 6 17 6 23 0 9-9 21-14 34-14 26 0 48 22 48 48 0 13-5 25-14 34-3 3-5 7-5 11 0 4 2 9 5 12l43 42c3 3 7 5 11 5 4 0 8-2 11-5l304-304c3-3 5-7 5-11 0-4-2-8-5-11l-42-43c-7-6-17-6-23 0-9 9-21 14-34 14-26 0-48-22-48-48 0-13 5-25 14-34 3-3 5-7 5-11 0-4-2-9-5-12l-43-42c-6-7-16-7-22 0l-304 304c-3 3-5 7-5 11 0 4 2 8 5 11z m203-180l13 12c3 3 7 5 11 5 4 0 8-2 11-5 7-6 7-16 0-22l-12-13 89-89 21 21c-8 13-13 28-13 44 0 44 36 80 80 80 16 0 31-5 44-13l21 21-89 89-13-12c-6-7-16-7-22 0-7 6-7 16 0 22l12 13-169 169-21-21c8-13 13-28 13-44 0-44-36-80-80-80-16 0-31 5-44 13l-21-21z m61 60c3 3 7 5 11 5 4 0 8-2 11-5 7-6 7-16 0-22l-16-16c-6-7-16-7-22 0-7 6-7 16 0 22z m32 32l16 16c3 3 7 5 11 5 4 0 8-2 11-5 7-6 7-16 0-22l-16-16c-6-7-16-7-22 0-7 6-7 16 0 22z"/>
    </symbol>
  
    <symbol id="icon-todolist" viewBox="0 0 512 512">
      <path d="m354 48l-20-39c-2-6-8-9-14-9l-128 0c-6 0-12 3-14 9l-20 39-78 0c-9 0-16 7-16 16l0 432c0 9 7 16 16 16l352 0c9 0 16-7 16-16l0-432c0-9-7-16-16-16z m-152-16l108 0 32 64-172 0z m214 448l-320 0 0-400 46 0-12 25c-3 5-3 11 0 15 3 5 8 8 14 8l224 0c0 0 0 0 0 0 9 0 16-7 16-16 0-3-1-6-3-9l-11-23 46 0z m-48-304l-144 0c-9 0-16 7-16 16 0 9 7 16 16 16l144 0c9 0 16-7 16-16 0-9-7-16-16-16z m0 80l-144 0c-9 0-16 7-16 16 0 9 7 16 16 16l144 0c9 0 16-7 16-16 0-9-7-16-16-16z m0 80l-144 0c-9 0-16 7-16 16 0 9 7 16 16 16l144 0c9 0 16-7 16-16 0-9-7-16-16-16z m0 80l-144 0c-9 0-16 7-16 16 0 9 7 16 16 16l144 0c9 0 16-7 16-16 0-9-7-16-16-16z m-208-240l-16 0c-9 0-16 7-16 16 0 9 7 16 16 16l16 0c9 0 16-7 16-16 0-9-7-16-16-16z m0 80l-16 0c-9 0-16 7-16 16 0 9 7 16 16 16l16 0c9 0 16-7 16-16 0-9-7-16-16-16z m0 80l-16 0c-9 0-16 7-16 16 0 9 7 16 16 16l16 0c9 0 16-7 16-16 0-9-7-16-16-16z m0 80l-16 0c-9 0-16 7-16 16 0 9 7 16 16 16l16 0c9 0 16-7 16-16 0-9-7-16-16-16z"/>
    </symbol>
  
    <symbol id="icon-todolist-add" viewBox="0 0 512 512">
      <path d="m178 9l-20 39-78 0c-9 0-16 7-16 16l0 432c0 9 7 16 16 16l352 0c9 0 16-7 16-16l0-432c0-9-7-16-16-16l-78 0-20-39c-2-6-8-9-14-9l-128 0c-6 0-12 3-14 9z m238 71l0 400-320 0 0-400 46 0-12 25c-3 5-3 11 0 15 3 5 8 8 14 8l224 0c0 0 0 0 0 0 9 0 16-7 16-16 0-3-1-6-3-9l-11-23z m-106-48l32 64-172 0 32-64z m10 224l-48 0 0-48c0-9-7-16-16-16-9 0-16 7-16 16l0 48-48 0c-9 0-16 7-16 16 0 9 7 16 16 16l48 0 0 48c0 9 7 16 16 16 9 0 16-7 16-16l0-48 48 0c9 0 16-7 16-16 0-9-7-16-16-16z"/>
    </symbol>
  
    <symbol id="icon-todolist-check" viewBox="0 0 512 512">
      <path d="m432 512c9 0 16-7 16-16l0-432c0-9-7-16-16-16l-78 0-20-39c-2-6-8-9-14-9l-128 0c-6 0-12 3-14 9l-20 39-78 0c-9 0-16 7-16 16l0 432c0 9 7 16 16 16z m-230-480l108 0 32 64-172 0z m-106 48l46 0-12 25c-3 5-3 11 0 15 3 5 8 8 14 8l224 0c0 0 0 0 0 0 9 0 16-7 16-16 0-3-1-6-3-9l-11-23 46 0 0 400-320 0z m213 149l-69 68-37-36c-6-7-16-7-22 0-7 6-7 16 0 22l48 48c3 3 7 5 11 5 4 0 8-2 11-5l80-80c7-6 7-16 0-22-6-7-16-7-22 0z"/>
    </symbol>
  
    <symbol id="icon-trash-bin" viewBox="0 0 512 512">
      <path d="m312 0l-112 0c-9 0-16 7-16 16l0 48-104 0c-9 0-16 7-16 16 0 9 7 16 16 16l16 0 0 400c0 9 7 16 16 16l288 0c9 0 16-7 16-16l0-400 16 0c9 0 16-7 16-16 0-9-7-16-16-16l-104 0 0-48c0-9-7-16-16-16z m72 96l0 384-256 0 0-384z m-168-32l0-32 80 0 0 32z m-8 384c9 0 16-7 16-16l0-272c0-9-7-16-16-16-9 0-16 7-16 16l0 272c0 9 7 16 16 16z m96 0c9 0 16-7 16-16l0-272c0-9-7-16-16-16-9 0-16 7-16 16l0 272c0 9 7 16 16 16z"/>
    </symbol>
  
    <symbol id="icon-tshirt" viewBox="0 0 512 512">
      <path d="m496 32l-160 0c-5 0-10 2-13 6l-43 58-48 0-43-58c-3-4-8-6-13-6l-160 0c-9 0-16 7-16 16l0 128c0 9 7 16 16 16l80 0 0 272c0 9 7 16 16 16l288 0c9 0 16-7 16-16l0-272 80 0c9 0 16-7 16-16l0-128c0-9-7-16-16-16z m-16 128l-80 0c-9 0-16 7-16 16l0 272-256 0 0-272c0-9-7-16-16-16l-80 0 0-96 136 0 43 58c3 4 8 6 13 6l64 0c5 0 10-2 13-6l43-58 136 0z"/>
    </symbol>
  
    <symbol id="icon-tv-monitor" viewBox="0 0 512 512">
      <path d="m496 64l-480 0c-9 0-16 7-16 16l0 320c0 9 7 16 16 16l224 0 0 64-64 0c-9 0-16 7-16 16 0 9 7 16 16 16l160 0c9 0 16-7 16-16 0-9-7-16-16-16l-64 0 0-64 224 0c9 0 16-7 16-16l0-320c0-9-7-16-16-16z m-16 320l-448 0 0-288 448 0z"/>
    </symbol>
  
    <symbol id="icon-umbrella" viewBox="0 0 512 512">
      <path d="m256 0c-219 0-255 203-256 205-1 5 1 10 4 13 3 4 7 6 12 6l224 0 0 240c0 26 22 48 48 48 26 0 48-22 48-48 0-9-7-16-16-16-9 0-16 7-16 16 0 9-7 16-16 16-9 0-16-7-16-16l0-240 224 0c0 0 0 0 0 0 9 0 16-7 16-16 0-2 0-4-1-5-5-25-50-203-255-203z m-220 192c14-46 64-160 220-160 156 0 206 114 220 160z"/>
    </symbol>
  
    <symbol id="icon-upload" viewBox="0 0 512 512">
      <path d="m256 480c9 0 16-7 16-16l0-217 37 36c3 3 7 5 11 5 4 0 8-2 11-5 7-6 7-16 0-22l-64-64c-6-7-16-7-22 0l-64 64c-7 6-7 16 0 22 6 7 16 7 22 0l37-36 0 217c0 9 7 16 16 16z m-240-128l176 0c9 0 16-7 16-16 0-9-7-16-16-16l-160 0 0-256 448 0 0 256-160 0c-9 0-16 7-16 16 0 9 7 16 16 16l176 0c9 0 16-7 16-16l0-288c0-9-7-16-16-16l-480 0c-9 0-16 7-16 16l0 288c0 9 7 16 16 16z"/>
    </symbol>
  
    <symbol id="icon-upload-folder" viewBox="0 0 512 512">
      <path d="m16 384l176 0c9 0 16-7 16-16 0-9-7-16-16-16l-160 0 0-320 137 0 60 59c3 3 7 5 11 5l240 0 0 256-160 0c-9 0-16 7-16 16 0 9 7 16 16 16l176 0c9 0 16-7 16-16l0-288c0-9-7-16-16-16l-249 0-60-59c-3-3-7-5-11-5l-160 0c-9 0-16 7-16 16l0 352c0 9 7 16 16 16z m240 128c9 0 16-7 16-16l0-217 37 36c3 3 7 5 11 5 4 0 8-2 11-5 7-6 7-16 0-22l-64-64c-6-7-16-7-22 0l-64 64c-7 6-7 16 0 22 6 7 16 7 22 0l37-36 0 217c0 9 7 16 16 16z"/>
    </symbol>
  
    <symbol id="icon-variable" viewBox="0 0 512 512">
      <path d="m399 273c0 0 0 0 0 0 17-14 33-33 33-65 0-55-45-104-96-104-29 0-55 12-73 34-10-1-20-2-31-2-66 0-112 34-139 105-38 3-93 24-93 87 0 40 30 80 96 80l288 0c44 0 64-20 64-64 0-38-19-64-49-71z m-63-137c37 0 64 38 64 72 0 11-3 20-10 29-15-42-47-74-91-90 11-7 24-11 37-11z m48 240l-288 0c-47 0-64-25-64-48 0-23 11-38 33-48 19-8 39-8 39-8l11 0 4-11c22-64 57-93 113-93 80 0 133 46 136 121l1 15 15 0c26 0 32 22 32 40 0 27-5 32-32 32z m112-192l-32 0c-9 0-16 7-16 16 0 9 7 16 16 16l32 0c9 0 16-7 16-16 0-9-7-16-16-16z m-144-112l0-32c0-9-7-16-16-16-9 0-16 7-16 16l0 32c0 9 7 16 16 16 9 0 16-7 16-16z m83 35l24-24c7-6 7-16 0-22-6-7-16-7-22 0l-24 24c-7 6-7 16 0 22 3 3 7 5 11 5 4 0 8-2 11-5z m-187 5c4 0 8-2 11-5 7-6 7-16 0-22l-24-24c-6-7-16-7-22 0-7 6-7 16 0 22l24 24c3 3 7 5 11 5z"/>
    </symbol>
  
    <symbol id="icon-video-cam" viewBox="0 0 512 512">
      <path d="m504 146c-5-3-12-3-16 0l-104 65 0-51c0-9-7-16-16-16l-41 0-64-64-215 0c-9 0-16 7-16 16 0 9 7 16 16 16l201 0 32 32-265 0c-9 0-16 7-16 16l0 256c0 9 7 16 16 16l352 0c9 0 16-7 16-16l0-51 104 65c2 1 5 2 8 2 3 0 5-1 8-2 5-3 8-8 8-14l0-256c0-6-3-11-8-14z m-24 241l-104-65c-4-3-11-3-16 0-5 3-8 8-8 14l0 64-320 0 0-224 320 0 0 64c0 6 3 11 8 14 5 3 12 3 16 0l104-65z m-416-147l32 0c9 0 16-7 16-16 0-9-7-16-16-16l-32 0c-9 0-16 7-16 16 0 9 7 16 16 16z m128 32l-128 0c-9 0-16 7-16 16l0 64c0 9 7 16 16 16l128 0c9 0 16-7 16-16l0-64c0-9-7-16-16-16z m-16 64l-96 0 0-32 96 0z"/>
    </symbol>
  
    <symbol id="icon-volume-higher" viewBox="0 0 512 512">
      <path d="m24 368l89 0 140 139c3 3 7 5 11 5 2 0 4 0 6-1 6-3 10-9 10-15l0-480c0-6-4-12-10-15-6-2-13-1-17 4l-140 139-89 0c-9 0-16 7-16 16l0 192c0 9 7 16 16 16z m16-192l80 0c4 0 8-2 11-5l117-116 0 402-117-116c-3-3-7-5-11-5l-80 0z m288 144c-9 0-16 7-16 16 0 9 7 16 16 16 53 0 96-43 96-96 0-53-43-96-96-96-9 0-16 7-16 16 0 9 7 16 16 16 35 0 64 29 64 64 0 35-29 64-64 64z m0 112c97 0 176-79 176-176 0-97-79-176-176-176-9 0-16 7-16 16 0 9 7 16 16 16 79 0 144 65 144 144 0 79-65 144-144 144-9 0-16 7-16 16 0 9 7 16 16 16z"/>
    </symbol>
  
    <symbol id="icon-volume-lower" viewBox="0 0 512 512">
      <path d="m64 368l89 0 140 139c3 3 7 5 11 5 2 0 4 0 6-1 6-3 10-9 10-15l0-480c0-6-4-12-10-15-6-2-13-1-17 4l-140 139-89 0c-9 0-16 7-16 16l0 192c0 9 7 16 16 16z m16-192l80 0c4 0 8-2 11-5l117-116 0 402-117-116c-3-3-7-5-11-5l-80 0z m288 144c-9 0-16 7-16 16 0 9 7 16 16 16 53 0 96-43 96-96 0-53-43-96-96-96-9 0-16 7-16 16 0 9 7 16 16 16 35 0 64 29 64 64 0 35-29 64-64 64z"/>
    </symbol>
  
    <symbol id="icon-volume-off" viewBox="0 0 512 512">
      <path d="m32 368l89 0 140 139c3 3 7 5 11 5 2 0 4 0 6-1 6-3 10-9 10-15l0-480c0-6-4-12-10-15-6-2-13-1-17 4l-140 139-89 0c-9 0-16 7-16 16l0 192c0 9 7 16 16 16z m16-192l80 0c4 0 8-2 11-5l117-116 0 402-117-116c-3-3-7-5-11-5l-80 0z m277 163c3 3 7 5 11 5 4 0 8-2 11-5l61-60 61 60c3 3 7 5 11 5 4 0 8-2 11-5 7-6 7-16 0-22l-60-61 60-61c7-6 7-16 0-22-6-7-16-7-22 0l-61 60-61-60c-6-7-16-7-22 0-7 6-7 16 0 22l60 61-60 61c-7 6-7 16 0 22z"/>
    </symbol>
  
    <symbol id="icon-watch" viewBox="0 0 512 512">
      <path d="m160 512l192 0c9 0 16-7 16-16l0-104c39-33 64-81 64-136 0-55-25-103-64-136l0-104c0-9-7-16-16-16l-192 0c-9 0-16 7-16 16l0 104c-39 33-64 81-64 136 0 55 25 103 64 136l0 104c0 9 7 16 16 16z m176-32l-160 0 0-67c24 12 51 19 80 19 29 0 56-7 80-19z m-160-448l160 0 0 67c-24-12-51-19-80-19-29 0-56 7-80 19z m-64 224c0-79 65-144 144-144 79 0 144 65 144 144 0 79-65 144-144 144-79 0-144-65-144-144z m137 14l64 32c2 1 5 2 7 2 6 0 12-3 14-9 4-8 1-17-7-21l-55-28 0-86c0-9-7-16-16-16-9 0-16 7-16 16l0 96c0 6 3 12 9 14z"/>
    </symbol>
  
    <symbol id="icon-waterfall" viewBox="0 0 512 512">
      <path d="m160 352c-9 0-16 7-16 16l0 48c0 9 7 16 16 16 9 0 16-7 16-16l0-48c0-9-7-16-16-16z m128 0c-9 0-16 7-16 16l0 64c0 9 7 16 16 16 9 0 16-7 16-16l0-64c0-9-7-16-16-16z m-64 0c-9 0-16 7-16 16l0 112c0 9 7 16 16 16 9 0 16-7 16-16l0-112c0-9-7-16-16-16z m128 0c-9 0-16 7-16 16l0 112c0 9 7 16 16 16 9 0 16-7 16-16l0-112c0-9-7-16-16-16z m95-175c-7-90-83-161-175-161-82 0-152 53-173 128l-3 0c-53 0-96 43-96 96 0 53 43 96 96 96l336 0c44 0 80-36 80-80 0-39-28-71-65-79z m-15 127l-336 0c-35 0-64-29-64-64 0-35 29-64 64-64l16 0c8 0 14-5 16-13 12-67 73-115 144-115 79 0 144 65 144 144 0 9 7 16 16 16 26 0 48 22 48 48 0 26-22 48-48 48z"/>
    </symbol>
  
    <symbol id="icon-website-1" viewBox="0 0 512 512">
      <path d="m496 40l-480 0c-9 0-16 7-16 16l0 400c0 9 7 16 16 16l480 0c9 0 16-7 16-16l0-400c0-9-7-16-16-16z m-16 32l0 64-448 0 0-64z m-448 368l0-272 448 0 0 272z m48-320c4 0 8-2 11-5 3-3 5-7 5-11 0-4-2-8-5-11-6-6-16-6-22 0-3 3-5 7-5 11 0 4 2 8 5 11 3 3 7 5 11 5z m48 0c4 0 8-2 11-5 3-3 5-7 5-11 0-4-2-8-5-11-6-6-16-6-22 0-3 3-5 7-5 11 0 4 2 8 5 11 3 3 7 5 11 5z m48 0c4 0 8-2 11-5 3-3 5-7 5-11 0-4-2-8-5-11-6-6-16-6-22 0-3 3-5 7-5 11 0 4 2 8 5 11 3 3 7 5 11 5z m72 80l-168 0c-9 0-16 7-16 16 0 9 7 16 16 16l168 0c9 0 16-7 16-16 0-9-7-16-16-16z m0 64l-168 0c-9 0-16 7-16 16 0 9 7 16 16 16l168 0c9 0 16-7 16-16 0-9-7-16-16-16z m0 64l-168 0c-9 0-16 7-16 16 0 9 7 16 16 16l168 0c9 0 16-7 16-16 0-9-7-16-16-16z m184-128l-120 0c-9 0-16 7-16 16l0 128c0 9 7 16 16 16l120 0c9 0 16-7 16-16l0-128c0-9-7-16-16-16z m-16 128l-88 0 0-96 88 0z"/>
    </symbol>
  
    <symbol id="icon-website-2" viewBox="0 0 512 512">
      <path d="m16 472l480 0c9 0 16-7 16-16l0-400c0-9-7-16-16-16l-480 0c-9 0-16 7-16 16l0 400c0 9 7 16 16 16z m16-32l0-272 448 0 0 272z m448-368l0 64-448 0 0-64z m-400 48c4 0 8-2 11-5 3-3 5-7 5-11 0-4-2-8-5-11-6-6-16-6-22 0-3 3-5 7-5 11 0 4 2 8 5 11 3 3 7 5 11 5z m48 0c4 0 8-2 11-5 3-3 5-7 5-11 0-4-2-8-5-11-6-6-16-6-22 0-3 3-5 7-5 11 0 4 2 8 5 11 3 3 7 5 11 5z m48 0c4 0 8-2 11-5 3-3 5-7 5-11 0-4-2-8-5-11-6-6-16-6-22 0-3 3-5 7-5 11 0 4 2 8 5 11 3 3 7 5 11 5z m256 80l-352 0c-9 0-16 7-16 16 0 9 7 16 16 16l352 0c9 0 16-7 16-16 0-9-7-16-16-16z m0 64l-352 0c-9 0-16 7-16 16 0 9 7 16 16 16l352 0c9 0 16-7 16-16 0-9-7-16-16-16z m0 64l-352 0c-9 0-16 7-16 16 0 9 7 16 16 16l352 0c9 0 16-7 16-16 0-9-7-16-16-16z"/>
    </symbol>
  
    <symbol id="icon-wine" viewBox="0 0 512 512">
      <path d="m368 0l-64 0c-9 0-16 7-16 16l0 147c-16 5-32 19-32 45l0 288c0 9 7 16 16 16l128 0c9 0 16-7 16-16l0-288c0-26-16-40-32-45l0-147c0-9-7-16-16-16z m-64 192c9 0 16-7 16-16l0-144 32 0 0 144c0 9 7 16 16 16 7 0 16 3 16 16l0 64-96 0 0-64c0-13 9-16 16-16z m-16 112l96 0 0 64-96 0z m0 176l0-80 96 0 0 80z m-71-147c4-3 7-8 7-13l0-128c0-9-7-16-16-16l-96 0c-9 0-16 7-16 16l0 128c0 5 3 10 7 13l41 28 0 119-24 0c-9 0-16 7-16 16 0 9 7 16 16 16l80 0c9 0 16-7 16-16 0-9-7-16-16-16l-24 0 0-119z m-89-125l64 0 0 103-32 22-32-22z"/>
    </symbol>
  
</svg>
